<?xml version="1.0" encoding="utf-8" ?><svg xmlns="http://www.w3.org/2000/svg" xmlns:xlink="http://www.w3.org/1999/xlink" width="1024" height="1024" viewBox="0 0 1024 1024"><path fill="#142324" d="M0 0L1024 0L1024 1024L0 1024L0 0Z"/><path fill="#0F0F0F" d="M322.161 420.311C324.89 381.296 334.49 344.521 369.917 322.563C399.334 304.33 430.331 303.376 463.028 310.881C464.504 309.992 465.528 310.057 467.234 310.035C495.211 309.66 523.198 309.693 551.169 309.859L609.005 309.791L656.966 309.697C663.536 309.693 673.516 309.389 679.875 309.862C689.051 324.886 689.393 342.97 678.595 357.388C669.1 370.066 659.036 382.361 649.259 394.833L590.343 469.629C586.415 474.6 567.75 499.449 563.874 501.985C565.226 506.185 569.598 520.25 574.573 519.827C577.811 517.427 578.606 511.549 579.349 507.652L599.734 507.631C597.011 535.566 574.295 559.347 552.977 527.619C546.507 517.989 543.385 505.42 539.28 494.573C527.801 464.246 518.204 427.793 495.697 403.576C506.879 409.917 512.919 416.26 520.983 425.92C531.429 411.465 545.485 394.033 556.757 380.128C533.252 378.954 519.919 374.122 497.997 369.565C477.274 365.234 456.074 363.626 434.934 364.78C387.739 367.719 353.488 384.766 322.161 420.311Z"/><path fill="#41BFA8" d="M322.161 420.311C324.89 381.296 334.49 344.521 369.917 322.563C399.334 304.33 430.331 303.376 463.028 310.881C476.617 315.311 487.933 319.897 500.178 327.369C520.122 339.539 532.708 355.236 557.288 359.116C570.835 361.255 584.998 360.513 598.788 360.562L560.68 409.041C553.583 418.103 544.896 428.701 538.466 437.974C549.14 457.299 555.813 481.184 563.874 501.985C565.226 506.185 569.598 520.25 574.573 519.827C577.811 517.427 578.606 511.549 579.349 507.652L599.734 507.631C597.011 535.566 574.295 559.347 552.977 527.619C546.507 517.989 543.385 505.42 539.28 494.573C527.801 464.246 518.204 427.793 495.697 403.576C506.879 409.917 512.919 416.26 520.983 425.92C531.429 411.465 545.485 394.033 556.757 380.128C533.252 378.954 519.919 374.122 497.997 369.565C477.274 365.234 456.074 363.626 434.934 364.78C387.739 367.719 353.488 384.766 322.161 420.311Z"/><path fill="#142324" d="M421.952 327.209C449.069 324.566 478.089 334.771 500.558 349.602C473.634 343.732 445.901 342.525 418.569 346.033C399.279 346.797 372.956 357.33 356.039 366.637C369.952 341.139 393.622 329.286 421.952 327.209Z"/><path fill="#41BFA8" d="M450.409 469.553C451.891 469.416 454.432 469.323 455.868 469.443C478.422 471.326 488.84 515.876 495.916 533.919C501.236 547.485 504.966 561.219 511.121 575.074C518.965 592.733 522.265 600.333 535.31 615.104C525.158 610.271 517.549 603.11 510.07 594.892C508.014 597.259 505.807 600.117 503.943 602.651C493.675 616.613 481.84 630.056 471.989 644.252C493.251 645.101 508.181 650.208 528.481 654.596C551.144 659.405 574.385 660.899 597.477 659.029C640.474 655.28 674.357 637.588 702.044 604.567C700.713 625.145 697.718 644.478 688.355 663.174C683.895 672.54 677.917 681.105 670.665 688.523C632.959 726.736 574.549 724.007 530.93 697.595C514.531 687.665 502.565 674.447 485.551 668.077C469.534 662.08 447.301 663.471 430.003 663.522C450.86 636.742 473.508 608.924 493.683 581.855C490.227 575.607 487.194 569.135 484.603 562.482C479.25 548.792 463.4 497.55 455.138 491.105C454.309 490.459 454.32 490.66 453.367 490.775C450.445 493.125 449.065 497.95 447.698 501.504C441.154 501.339 434.276 501.426 427.706 501.415C429.46 487.275 435.802 473.848 450.409 469.553Z"/><path fill="#0F0F0F" d="M667.529 658.057L667.781 658.313C667.718 658.628 667.655 658.944 667.593 659.259C660.073 674.173 641.175 688.435 626.813 692.776C595.958 702.103 568.633 696.071 541.183 682.485C536.849 680.246 532.654 677.751 528.618 675.011C574.475 683.86 626.459 682.5 667.529 658.057Z"/><path fill="#41BFA8" d="M455.412 396.706C515.257 395.952 530.311 575.197 566.874 594.688C569.967 596.337 573.28 596.651 576.596 595.49C586.554 592.003 592.826 579.755 596.918 570.817C583.662 578.379 575.243 577.546 564.16 566.821C564.576 566.903 564.993 566.983 565.41 567.06C596.828 572.817 608.612 534.313 611.218 510.337C612.034 502.828 610.514 488.235 616.987 484.023C619.511 482.404 622.594 481.911 625.497 482.66C629.024 483.555 630.635 485.997 632.465 488.866C633.308 504.626 628.052 535.739 624.238 551.311C619.131 572.165 608.067 601.964 588.846 613.169C580.069 618.285 571.931 618.819 562.292 616.262C552.656 611.789 545.42 604.794 539.471 596.044C531.974 585.016 526.853 572.136 522.225 559.689C511.718 531.429 485.132 431.827 460.805 419.615C457.689 418.051 454.222 417.852 450.953 419.061C442.109 422.332 435.729 433.176 431.785 441.178C443.8 435.926 453.611 436.119 463.24 446.086L462.571 445.971C453.944 444.53 447.146 445.454 439.796 450.788C421.5 464.681 416.581 489.593 413.445 511.068C411.918 521.521 415.16 545.197 398.581 542.064C395.443 541.471 393.194 538.505 391.611 535.98C391.128 531.947 391.256 527.212 391.732 523.197C396.215 485.341 407.138 401.361 455.412 396.706Z"/><path fill="#41BFA8" d="M447.814 507.344C451.181 510.405 455.868 524.517 456.977 529.048C449.438 539.961 436.107 555.808 427.625 566.602L374.609 634.238L357.129 656.333C351.532 663.42 343.681 672.218 341.353 681.024C337.922 693.998 341.961 704.388 349.722 714.707L340.875 714.714L330.053 714.884C325.093 707.024 322.059 698.452 321.582 689.132C321.16 679.25 323.494 669.444 328.324 660.812C331.466 655.212 340.155 644.596 344.337 639.218L376.33 598.414L423.887 537.654C431.072 528.482 440.426 515.604 447.814 507.344Z"/><path fill="#41BFA8" d="M684.018 406.083C688.217 405.793 691.807 405.82 694.55 409.673C696.12 411.879 696.291 413.653 696.346 416.322C696.575 427.324 696.466 438.354 696.466 449.362L696.468 512.406L696.5 545.841C696.505 555.539 698.992 563.956 690.015 569.445C685.251 569.918 681.098 569.314 678.506 564.801C677.628 563.273 677.518 560.893 677.496 559.14C677.359 548.244 677.423 537.339 677.424 526.441L677.428 463.896C677.416 449.548 677.371 435.196 677.394 420.848C677.406 413.235 676.758 410.091 684.018 406.083Z"/><path fill="#41BFA8" d="M653.806 439.031C657.491 439.092 663.631 441.463 663.829 445.371C665.177 472.09 664.534 500.69 664.523 527.378L664.508 565.805C664.511 571.717 664.763 579.984 664.466 585.76C664.407 587.149 664.079 588.513 663.502 589.777C662.012 593.082 659.614 594.178 656.432 595.403C654.764 595.418 653.274 595.301 651.702 594.684C649.391 593.776 646.941 591.857 646.141 589.41C644.737 585.118 644.999 457.809 645.505 447.989C645.584 446.461 645.907 445.134 646.683 443.8C648.272 441.068 650.892 439.862 653.806 439.031Z"/><path fill="#41BFA8" d="M334.535 454.527C336.261 454.444 337.966 454.334 339.64 454.851C342.277 455.664 344.315 457.251 345.521 459.752C346.567 461.92 346.47 464.849 346.538 467.217C346.851 478.091 347.304 590.11 345.854 593.948C344.609 597.245 342.533 598.478 339.462 599.944C336.383 600.09 334.085 599.941 331.512 598.101C327.985 595.58 327.634 592.361 327.566 588.41C327.406 579.145 327.481 569.904 327.48 560.65L327.454 509.11C327.45 496.125 327.437 483.136 327.458 470.152C327.47 462.291 326.771 458.459 334.535 454.527Z"/><path fill="#41BFA8" d="M368.054 428.631C369.37 428.73 370.8 428.936 372.054 429.354C374.637 430.216 376.673 432.326 377.674 434.829C379.25 438.771 378.856 548.959 378.385 562.224C378.319 564.094 378.342 566.508 377.541 568.216C376.161 571.16 373.472 572.627 370.594 573.801C369.028 573.744 367.305 573.65 365.815 573.145C363.166 572.247 361.174 570.554 360.125 567.936C358.837 564.72 358.91 449.717 359.552 438.071C359.644 436.396 360.025 434.846 360.868 433.382C362.495 430.553 365.011 429.387 368.054 428.631Z"/><path fill="#41BFA8" d="M716.987 471.594C724.486 471.139 728.247 475.147 728.399 482.451C728.709 497.414 728.513 512.391 728.489 527.358C728.477 534.905 728.348 537.82 721.082 541.246C720.707 541.266 720.332 541.279 719.957 541.286C706.169 541.491 709.412 524.465 709.428 514.773L709.539 478.737C711.789 474.528 712.743 473.577 716.987 471.594Z"/><path fill="#41BFA8" d="M302.564 483.029C310.496 482.413 314.442 485.912 314.393 494.092C314.289 511.197 315.203 528.969 313.876 546.016C313.653 548.872 309.539 551.147 307.265 552.201C288.127 555.043 297.664 520.377 295.4 508.969C294.503 504.451 295.803 493.785 296.171 489.089C296.361 486.666 300.468 484.059 302.564 483.029Z"/><path fill="#41BFA8" d="M271.7 503.076C274.774 503.125 275.652 503.382 278.568 504.343C285.337 510.928 285.135 523.149 274.367 525.882C260.375 525.462 259.617 506.626 271.7 503.076Z"/><path fill="#41BFA8" d="M747.96 498.087C763.169 496.922 764.135 515.745 753.533 520.454C747.075 520.808 745.051 520.35 741.576 514.732C741.234 510.447 741.335 507.945 741.55 503.613C743.713 500.381 744.466 499.784 747.96 498.087Z"/></svg>