<svg xmlns="http://www.w3.org/2000/svg" width="1024" height="1024" viewBox="0 0 1024 1024"><path fill="#f1f0f0" d="M0 0h256.333c-.288 13.283-.358 29.395.1 42.627l.063 42.442c14.111.075 28.339-.157 42.422-.018 13.517-.03 29.282-.467 42.614-.007.006 13.424-.401 29.14.058 42.363.019 13.931.27 28.733-.073 42.622-13.821-.024-28.804-.321-42.53.104-10.673.851-30.963.101-42.435.101-.032 13.935-.264 28.367-.061 42.26l-.01 42.504.012 42.554.004 42.467 42.41-.016c-.506-12.501.034-29.36.068-42.241 13.616-.44 28.893-.143 42.637-.18 13.235-.044 29.549-.526 42.506-.067-.074 3.808-.63 13.348.728 16.409l.578.447c15.536-5.966 24.988-7.91 41.293-8.849 6.616.029 11.655.131 18.305.98 5.025.641 10.668 2.069 15.502 2.569l8.887.094c12.385.151 26.413.553 38.728.181l134.667.047q24.916-.112 49.83.119c.075 9.215-.29 21.627.111 30.604 8.661-.549 23.551-.131 32.594-.139.382-13.509.027-28.758.121-42.457 13.653.221 29.33-.397 42.479.064-.141 13.369-.617 29.165.028 42.419 13.472-.028 29.187-.44 42.548.016l42.635-.021c13.956-.02 28.989-.329 42.855-.005-.182-14.017-.018-28.401-.021-42.448-.667-11.976-.006-29.929-.007-42.543 13.814.003 28.643.293 42.366-.009l42.651-.029.027 42.551c14.326-.049 28.647-.024 42.977.074V1024H0V0"/><path fill="#f1f0f0" d="m938.345 254.993 42.651-.029.027 42.551c14.326-.049 28.647-.024 42.977.074V1024H639.768c-.307-13.74.151-29.284.235-43.128.177-14.177.016-28.661.005-42.861q-.099-21.387.069-42.773 21.23-.187 42.46.03l-.053-42.775.092-42.503c-.51-13.075-.052-29.305-.068-42.671q-21.236.246-42.473.04-.138-21.427-.017-42.855l.001-15.318c43.656-17.914 60.927-60.493 63.204-104.738-7.351 8.257-12.702 13.421-20.955 20.685-.11-9.417.183-19.613.241-29.125.152-4.445-.151-25.808.997-28.223-5.342-5.125-4.942-7.428-4.862-14.495l-.069-3.603c.65-6.493.332-20.51.353-27.661l.085-54.144q.07-12.803-.105-25.604c.39-9.717-1.106-22.499 1.017-31.828.269-1.184 2.129-3.233 2.978-4.189 9.961-3.676 14.099 1.361 14.208 10.947.7 2.846.556 4.827.551 7.735 8.945.006 18.94-.204 27.802.153 12.173.3 30.444.583 42.501.106-.283-13.953-.029-28.607.017-42.613l-.013-42.586c13.472-.028 29.187-.44 42.548.016l42.635-.021c13.956-.02 28.989-.329 42.855-.005-.182-14.017-.018-28.401-.021-42.448-.667-11.976-.006-29.929-.007-42.543 13.814.003 28.643.293 42.366-.009"/><path fill="#f1f0f0" d="m938.345 254.993 42.651-.029.027 42.551c14.326-.049 28.647-.024 42.977.074v298.439l-43.028-.125c-4.161-.286-10.694-.022-15.141-.009l-27.477-.02-42.359.055q-21.383.092-42.764-.035c-.661-11.839.044-29.927-.07-42.592-11.901-.663-30.154-.028-42.629.02l-.014 42.664c-13.437-.403-28.917-.007-42.519.006l-42.575-.009-42.915.025c.152-4.445-.151-25.808.997-28.223-5.342-5.125-4.942-7.428-4.862-14.495l-.069-3.603c.65-6.493.332-20.51.353-27.661l.085-54.144q.07-12.803-.105-25.604c.39-9.717-1.106-22.499 1.017-31.828.269-1.184 2.129-3.233 2.978-4.189 9.961-3.676 14.099 1.361 14.208 10.947.7 2.846.556 4.827.551 7.735 8.945.006 18.94-.204 27.802.153 12.173.3 30.444.583 42.501.106-.283-13.953-.029-28.607.017-42.613l-.013-42.586c13.472-.028 29.187-.44 42.548.016l42.635-.021c13.956-.02 28.989-.329 42.855-.005-.182-14.017-.018-28.401-.021-42.448-.667-11.976-.006-29.929-.007-42.543 13.814.003 28.643.293 42.366-.009"/><path fill="#fefefe" d="M682.903 406.261c9.961-3.676 14.099 1.361 14.208 10.947.7 2.846.556 4.827.551 7.735 8.945.006 18.94-.204 27.802.153 12.173.3 30.444.583 42.501.106-.003 13.599.377 29.269-.107 42.699 13.683-.235 29.046-.381 42.702-.058l-.092 42.349c-13.473.28-29.04.536-42.467.145-.022 14.043-.278 28.795-.01 42.78 5.292.65 15.995.42 21.82.41 5.715-.011 15.261.255 20.721-.205l-.014 42.664c-13.437-.403-28.917-.007-42.519.006l-42.575-.009-42.915.025c.152-4.445-.151-25.808.997-28.223-5.342-5.125-4.942-7.428-4.862-14.495l-.069-3.603c.65-6.493.332-20.51.353-27.661l.085-54.144q.07-12.803-.105-25.604c.39-9.717-1.106-22.499 1.017-31.828.269-1.184 2.129-3.233 2.978-4.189"/><path fill="#4ec3a6" d="M682.903 406.261c9.961-3.676 14.099 1.361 14.208 10.947l.014 57.084c.01 6.42-.359 24.119.29 29.884-.056 1.986-.129 3.963-.116 5.95-.385 12.555-.018 25.251-.095 37.821-.014 2.229-.14 5.247.063 7.429-.453 8.9-3.477 15.92-13.761 12.409-5.342-5.125-4.942-7.428-4.862-14.495l-.069-3.603c.65-6.493.332-20.51.353-27.661l.085-54.144q.07-12.803-.105-25.604c.39-9.717-1.106-22.499 1.017-31.828.269-1.184 2.129-3.233 2.978-4.189"/><path fill="#f1f0f0" d="M725.475 553.202c13.834.426 28.648.124 42.566.05l-.042 42.74-42.575-.009z"/><path fill="#f1f0f0" d="M697.111 417.208c.7 2.846.556 4.827.551 7.735 8.945.006 18.94-.204 27.802.153.03 5.005-.594 40.107.226 41.595 1.399.941 2.574.854 4.275 1.002-2.207 1.481-3.696-1.258-4.559 1.952-.379-.818-.881-2.075-1.939-2.139-7.431-.45-18.434.144-25.786.224.013 6.794.473 31.302-.266 36.446-.649-5.765-.28-23.464-.29-29.884z"/><path fill="#4ec3a6" d="M710.669 510.301c-.011-10.36-.327-21.038.442-31.309.326-4.35 4.215-8.804 8.846-8.212 4.626.591 8.416 2.45 8.835 7.6.821 10.794.292 21.78.332 32.604-.025 6.903.369 14.281-.376 21.077-.297 2.713-1.917 4.911-3.713 6.842-17.509 7.664-14.283-18.882-14.366-28.602"/><path fill="#f1f0f0" d="M697.299 510.126c3.865.383 9.376.241 13.37.175.083 9.72-3.143 36.266 14.366 28.602.746 3.589.481 10.443.463 14.342-6.078-.015-22.312-.482-27.588.097-.138.497-.397 1.667-.643 2.034-.203-2.182-.077-5.2-.063-7.429.077-12.57-.29-25.266.095-37.821"/><path fill="#4ec3a6" d="M749.489 496.533c14.904-.255 16.136 18.406 4.256 23.099-1.06.124-2.71.158-3.756 0a8.75 8.75 0 0 1-5.75-3.568c-2.992-4.293-2.164-9.783-1.263-14.517 2.31-2.86 3.136-3.554 6.513-5.014"/><path fill="#f1f0f0" d="m938.345 254.993 42.651-.029.027 42.551-.063 42.451-42.614.051-42.339-.024c-.182-14.017-.018-28.401-.021-42.448-.667-11.976-.006-29.929-.007-42.543 13.814.003 28.643.293 42.366-.009"/><path fill="#fefefe" d="m981.023 297.515-.063 42.451-42.614.051c-.706-10.821-.084-30.482-.098-42.128 13.707-.661 28.762.104 42.775-.374"/><path fill="#fefefe" d="M895.979 255.002c13.814.003 28.643.293 42.366-.009-.003 13.967.189 28.614-.112 42.546l-42.247.006c-.667-11.976-.006-29.929-.007-42.543"/><path fill="#fefefe" d="M895.964 510.449c13.888-.008 28.512.201 42.339-.158.165 13.956.289 29.041-.123 42.976l-42.192-.025.007 42.687q-21.383.092-42.764-.035c-.661-11.839.044-29.927-.07-42.592 13.963.323 28.809.162 42.798 0a963 963 0 0 1 .005-42.853"/><path fill="#fefefe" d="M1024 510.237v43.072c-13.65.391-29.176.079-42.943-.045l-.014-42.962z"/><path fill="#f1f0f0" d="M981.023 297.515c14.326-.049 28.647-.024 42.977.074v42.439l-43.04-.062z"/><path fill="#fefefe" d="m980.96 339.966 43.04.062v42.429c-14.25-.13-28.72.022-42.983.041z"/><path fill="#fefefe" d="M1024 425.263v42.491c-14.34-.233-28.64.258-42.965-.126l.001-42.441q21.483-.137 42.964.076"/><path fill="#fefefe" d="m896.007 382.494-.024 42.665c-13.722.338-28.924.087-42.691-.121-.292-13.98-.073-28.481-.033-42.504z"/><path fill="#fefefe" d="M810.521 510.448q21.29.098 42.579-.103c-.019 14.144.255 28.886.061 42.957-11.901-.663-30.154-.028-42.629.02z"/><path fill="#f1f0f0" d="M767.969 340.003c13.472-.028 29.187-.44 42.548.016.019 13.653-.338 28.962.071 42.47q-21.302.315-42.606.1z"/><path fill="#fefefe" d="M810.6 425.318c14.203-.194 28.539.102 42.653-.158-.078 13.538.329 29.474-.142 42.751-5.055-.424-11.646-.152-16.904-.111l-25.647.043z"/><path fill="#fefefe" d="M853.152 339.998c.031 13.748.418 28.761.107 42.391l-42.671.1c-.409-13.508-.052-28.817-.071-42.47z"/><path fill="#fefefe" d="m810.588 382.489-.051 42.551-42.572.162c-.283-13.953-.029-28.607.017-42.613q21.304.216 42.606-.1"/><path fill="#fefefe" d="m981.017 382.498-.045 42.583q-21.26.248-42.521-.019c-.338-14.024.222-28.279-.196-42.437q21.381.08 42.762-.127"/><path fill="#fefefe" d="m853.111 467.911 42.866-.086c.017 5.645.89 38.396-.288 42.378-12.554.052-30.334.66-42.456-.089q.162-21.102-.122-42.203"/><path fill="#fefefe" d="m938.349 553.548 42.663-.076c-.002 13.836.279 28.683-.04 42.431-4.161-.286-10.694-.022-15.141-.009l-27.477-.02c-.477-13.58.026-28.618-.005-42.326"/><path fill="#fefefe" d="m896.007 339.993 42.339.024-.133 42.339-42.206.138z"/><path fill="#fefefe" d="M900.238 425.26c12.128-.278 25.986-.217 38.104.072.022 6.421.452 37.862-.395 41.923-1.53.767-2.923.581-4.721.634q-18.6.12-37.199-.114a2370 2370 0 0 1-.013-42.499z"/><path fill="#fefefe" d="M938.282 467.964c13.959-.298 28.728-.076 42.73-.083l-.033 42.2c-13.778-.301-28.744.131-42.724.067q.157-21.092.027-42.184"/><path fill="#f1f0f0" d="M938.4 724.484c13.897.003 28.812-.283 42.617.022l42.983.011V1024H639.768c-.307-13.74.151-29.284.235-43.128.177-14.177.016-28.661.005-42.861 11.678-.005 31.535-.671 42.531.076 11.892.221 31.189.489 42.899-.085 13.973.169 28.839-.32 42.514.029l42.587-.01-.001-42.704q21.293-.19 42.585-.088.283-21.361-.032-42.722c.922-12.504-.108-29.148.311-42.499 12.73-.059 30.315-.65 42.607-.031l-.012-42.763c12.855.607 29.363.279 42.325-.06q.216-21.334.078-42.67"/><path fill="#f1f0f0" d="m810.539 938.021 42.586.01c14.223.154 28.649.004 42.887-.03q-.15 21.422.03 42.842c.103 14.385.117 28.767.04 43.157H639.768c-.307-13.74.151-29.284.235-43.128.177-14.177.016-28.661.005-42.861 11.678-.005 31.535-.671 42.531.076 11.892.221 31.189.489 42.899-.085 13.973.169 28.839-.32 42.514.029z"/><path fill="#fefefe" d="M640.008 938.011c11.678-.005 31.535-.671 42.531.076 11.892.221 31.189.489 42.899-.085-.027 14.094.122 28.546-.092 42.607q-21.36-.107-42.72.049l-.079 43.342h-42.779c-.307-13.74.151-29.284.235-43.128.177-14.177.016-28.661.005-42.861"/><path fill="#f1f0f0" d="M640.008 938.011c11.678-.005 31.535-.671 42.531.076-.011 14.085-.209 28.609.001 42.658-13.902.045-28.743.438-42.537.127.177-14.177.016-28.661.005-42.861"/><path fill="#fefefe" d="M810.532 980.959c14.025-.253 28.856.103 42.648-.357-.173 14.466-.089 28.938.252 43.398h-42.913z"/><path fill="#fefefe" d="M896.012 938.001q-.15 21.422.03 42.842c-14.167-.21-28.678.076-42.747-.377-.737-11.839.009-29.727-.17-42.435 14.223.154 28.649.004 42.887-.03"/><path fill="#fefefe" d="M725.429 980.919c14.193-.205 28.345.158 42.484-.074l-.27 43.155h-42.158z"/><path fill="#fefefe" d="M810.539 938.021c-.251 13.977-.067 28.54-.093 42.565l-42.666.051q-.138-21.304.172-42.606z"/><path fill="#f1f0f0" d="M896.012 938.001c12.709-.009 30.057-.573 42.368.032 13.056.441 29.475.24 42.623.03l42.997-.085V1024H896.082c.077-14.39.063-28.772-.04-43.157q-.18-21.42-.03-42.842"/><path fill="#fefefe" d="m981.003 938.063 42.997-.085V1024h-42.975l-.024-43.168z"/><path fill="#f1f0f0" d="m981.003 938.063 42.997-.085v42.955c-13.91-.349-29.012-.14-42.999-.101z"/><path fill="#fefefe" d="m896.042 980.843 42.341-.073-.031 43.23h-42.27c.077-14.39.063-28.772-.04-43.157"/><path fill="#fefefe" d="M938.38 938.033c13.056.441 29.475.24 42.623.03l-.002 42.769c-13.935-.32-28.798.387-42.603-.256-.295-13.84.044-28.571-.018-42.543"/><path fill="#fefefe" d="M938.4 724.484c13.897.003 28.812-.283 42.617.022l42.983.011v127.981l-42.983-.047-.031-42.442c-13.586-.369-28.808-.023-42.527-.023-13.895.242-28.498.002-42.45-.009l-.012-42.763c12.855.607 29.363.279 42.325-.06q.216-21.334.078-42.67"/><path fill="#f1f0f0" d="M981.016 767.159c13.866.414 28.894-.096 42.984.043v85.296l-42.983-.047-.031-42.442c.255-14.037.029-28.758.03-42.85"/><path fill="#fefefe" d="M1024 810.031v42.467l-42.983-.047-.031-42.442z"/><path fill="#f1f0f0" d="M938.4 724.484c13.897.003 28.812-.283 42.617.022.115 13.983.453 28.849.034 42.746-14.233-.241-28.47-.216-42.702.076l.11 42.658c-13.895.242-28.498.002-42.45-.009l-.012-42.763c12.855.607 29.363.279 42.325-.06q.216-21.334.078-42.67"/><path fill="#fefefe" d="M853.402 810.008c12.73-.059 30.315-.65 42.607-.031.005 14.058.187 28.489.004 42.514-.002 14.056.2 28.618-.025 42.63-13.522.09-29.493.583-42.884-.014l.021 42.924-42.586-.01-.001-42.704q21.293-.19 42.585-.088.283-21.361-.032-42.722c.922-12.504-.108-29.148.311-42.499"/><path fill="#f1f0f0" d="M853.402 810.008c12.73-.059 30.315-.65 42.607-.031.005 14.058.187 28.489.004 42.514l-42.922.016c.922-12.504-.108-29.148.311-42.499"/><path fill="#f1f0f0" d="m981.017 852.451 42.983.047v85.48l-42.997.085c.195-14.155 0-28.771-.007-42.964-.186-14.049.013-28.56.021-42.648"/><path fill="#fefefe" d="m980.996 895.099 43.004.256v42.623l-42.997.085c.195-14.155 0-28.771-.007-42.964"/><path fill="#fefefe" d="M981.017 852.451c-.008 14.088-.207 28.599-.021 42.648-13.346.328-29.325.378-42.619-.072q.126-21.207.034-42.415c13.947-.323 28.555-.055 42.606-.161"/><path fill="#fefefe" d="M896.058 895.234q21.127-.198 42.252.102l.07 42.697c-12.311-.605-29.659-.041-42.368-.032z"/><path fill="#fefefe" d="M896.009 809.977c13.952.011 28.555.251 42.45.009-.133 14.069.098 28.503-.187 42.482-13.817.005-28.523-.259-42.259.023.183-14.025.001-28.456-.004-42.514"/><path fill="#fefefe" d="m938.354 595.874 27.477.02c4.447-.013 10.98-.277 15.141.009l43.028.125v128.489l-42.983-.011c-13.805-.305-28.72-.019-42.617-.022-13.653.277-28.772.158-42.402.034l.023-86.167c-.29-13.929-.141-28.476-.026-42.422z"/><path fill="#f1f0f0" d="m938.354 595.874 27.477.02c4.447-.013 10.98-.277 15.141.009.03 13.45-.358 29.338.122 42.633-13.612-.125-29.444.313-42.758-.114.068 12.181.095 28.998-.014 41.619-.001.098 1.075 1.808 1.132 1.898-1.976 6.604-1.101 34.136-1.054 42.545-13.653.277-28.772.158-42.402.034l.023-86.167c-.29-13.929-.141-28.476-.026-42.422z"/><path fill="#fefefe" d="m895.995 595.929 42.359-.055c-.033 13 .391 29.416-.187 42.205l-27.173.044c-3.376.009-11.777-.132-14.973.228-.29-13.929-.141-28.476-.026-42.422"/><path fill="#f1f0f0" d="M981.017 724.506c.014-11.907.613-31.649-.237-43.102l43.22.042v43.071z"/><path fill="#fefefe" d="M682.576 809.99c13.925-.01 28.785-.293 42.629.003l.114 27.354c.013 4.309-.231 11.164.095 15.146l42.45.027 42.704-.046c13.12-.009 29.699-.511 42.523.033q.315 21.361.032 42.722-21.293-.102-42.585.088l.001 42.704-42.587.01c-13.675-.349-28.541.14-42.514-.029-11.71.574-31.007.306-42.899.085-10.996-.747-30.853-.081-42.531-.076q-.099-21.387.069-42.773 21.23-.187 42.46.03l-.053-42.775z"/><path fill="#fefefe" d="M810.568 852.474c13.12-.009 29.699-.511 42.523.033q.315 21.361.032 42.722-21.293-.102-42.585.088l.001 42.704-42.587.01c-13.675-.349-28.541.14-42.514-.029l-.053-42.742 42.49.055c-.799-11.948-.211-30.487-.011-42.795z"/><path fill="#f1f0f0" d="M810.568 852.474c13.12-.009 29.699-.511 42.523.033q.315 21.361.032 42.722-21.293-.102-42.585.088l.001 42.704-42.587.01c.146-14.159-.037-28.633-.065-42.817 13.361.446 29.191.125 42.626-.156.405-13.489.016-28.887.055-42.584"/><path fill="#f1f0f0" d="m725.414 852.493 42.45.027c-.2 12.308-.788 30.847.011 42.795l-42.49-.055.053 42.742c-11.71.574-31.007.306-42.899.085l.036-42.802c13.561.369 29.133.05 42.746-.25.516-13.37.116-29.063.093-42.542"/><path fill="#f1f0f0" d="M682.576 809.99c13.925-.01 28.785-.293 42.629.003l.114 27.354c.013 4.309-.231 11.164.095 15.146-13.717.286-29.24.165-42.93 0z"/><path fill="#fefefe" d="M853.056 638.357c13.484-.101 29.824.633 42.965-.006l-.023 86.167c-13.459-.542-28.868.117-42.704-.205.434-28.212-.163-57.594-.238-85.956"/><path fill="#fefefe" d="M810.502 724.747q21.391-.318 42.786-.216c.022 13.628.355 28.999-.121 42.479-13.844.297-28.784.584-42.583.143l-.091 42.832c-12.997-.533-29.192-.075-42.54-.132-.553-13.928-.224-28.771.012-42.711l42.574.041z"/><path fill="#fefefe" d="M895.998 724.518c13.63.124 28.749.243 42.402-.034q.138 21.336-.078 42.67c-12.962.339-29.47.667-42.325.06l.012 42.763c-12.292-.619-29.877-.028-42.607.031l-.084-42.886c13.79.303 28.816.01 42.685.029-.366-13.619-.013-28.881-.005-42.633"/><path fill="#fefefe" d="M682.508 767.319q21.464-.153 42.926.005c-.117 13.572.374 29.439-.229 42.669-13.844-.296-28.704-.013-42.629-.003-.51-13.075-.052-29.305-.068-42.671"/><path fill="#fefefe" d="M640.018 724.504c13.288.185 29.194.324 42.508-.008-.011 14.009-.291 28.892-.018 42.823q-21.236.246-42.473.04-.138-21.427-.017-42.855"/><path fill="#f1f0f0" d="M767.953 809.853c13.348.057 29.543-.401 42.54.132l.075 42.489-42.704.046c.196-14.121-.028-28.485.089-42.667"/><path fill="#fefefe" d="m810.493 809.985 42.909.023c-.419 13.351.611 29.995-.311 42.499-12.824-.544-29.403-.042-42.523-.033z"/><path fill="#fefefe" d="M767.919 724.534c-.004 14.08-.179 28.561.046 42.608-13.515.118-29.167.734-42.594-.035q.192-21.186-.139-42.371c13.959-.016 28.801.205 42.687-.202"/><path fill="#fefefe" d="M683.05 682.236c14.038-.476 28.06.082 41.995-.184.438 14.123.522 28.255.255 42.382l-42.774.062c-.027-13.851-.196-28.462.524-42.26"/><path fill="#fefefe" d="M725.205 809.993c11.87-.003 31.498.601 42.748-.14-.117 14.182.107 28.546-.089 42.667l-42.45-.027c-.326-3.982-.082-10.837-.095-15.146z"/><path fill="#fefefe" d="M768.173 682.198q21.17-.277 42.341-.137l-.065 42.426c-13.553.005-29.158-.385-42.53.047-.669-11.506-.165-30.836.254-42.336"/><path fill="#fefefe" d="m725.424 595.983 42.575.009c-.264 13.773-.051 28.241-.064 42.07q-21.203.188-42.405.147c-.178-14.003-.083-28.207-.106-42.226"/><path fill="#fefefe" d="M810.518 595.986c13.857-.021 28.823-.33 42.589.013-.013 12.435.647 30.128-.033 42.018-11.799-.021-30.69-.594-42.145.43-.874-14.092.123-28.581-.411-42.461"/><path fill="#4ec3a6" d="M341.612 297.582c13.235-.044 29.549-.526 42.506-.067-.074 3.808-.63 13.348.728 16.409l.578.447c15.536-5.966 24.988-7.91 41.293-8.849 6.616.029 11.655.131 18.305.98 5.025.641 10.668 2.069 15.502 2.569l8.887.094c12.385.151 26.413.553 38.728.181l134.667.047q24.916-.112 49.83.119c.075 9.215-.29 21.627.111 30.604 8.661-.549 23.551-.131 32.594-.139.382-13.509.027-28.758.121-42.457 13.653.221 29.33-.397 42.479.064-.141 13.369-.617 29.165.028 42.419l.013 42.586c-.046 14.006-.3 28.66-.017 42.613-12.057.477-30.328.194-42.501-.106-8.862-.357-18.857-.147-27.802-.153.005-2.908.149-4.889-.551-7.735-.109-9.586-4.247-14.623-14.208-10.947-.849.956-2.709 3.005-2.978 4.189-2.123 9.329-.627 22.111-1.017 31.828q.176 12.801.105 25.604l-.085 54.144c-.021 7.151.297 21.168-.353 27.661l.069 3.603c-.08 7.067-.48 9.37 4.862 14.495-1.148 2.415-.845 23.778-.997 28.223-.058 9.512-.351 19.708-.241 29.125 8.253-7.264 13.604-12.428 20.955-20.685-2.277 44.245-19.548 86.824-63.204 104.738-11.812 4.391-23.481 7.246-36.152 7.493-5.159 0-11.194-.039-16.266-.663-5.344-.657-10.624-1.934-16.032-2.524l-.601-.061c-7.148-.5-15.609-.418-22.773-.328-7.955-.519-22.821-.089-30.889.015l-121.669-.034c-18.293-.032-40.451.55-58.431-.289-.445-9.885.53-21.69-.363-31.413l-37.885.12c-.632-12.427-.028-30.396.017-43.073l.003-42.529c7.799-.017 21.872.286 30.141-.191l1.171-1.106c-2.247-4.981-1.158-33.796-1.095-41.534l-.009-42.562c-.213-14.19.112-28.497-.055-42.754-.147-9.471 3.104-17.132 13.856-12.964-3.611-6.838.205-26.133-1.8-32.255-.077 1.351-.066 1.254-.788 2.405-1.888.808-36.092.276-41.492.292l.066-42.684-.066-42.544c-.506-12.501.034-29.36.068-42.241 13.616-.44 28.893-.143 42.637-.18"/><path fill="#0f100f" d="M341.612 297.582c13.235-.044 29.549-.526 42.506-.067-.074 3.808-.63 13.348.728 16.409l.578.447c15.536-5.966 24.988-7.91 41.293-8.849 6.616.029 11.655.131 18.305.98 5.025.641 10.668 2.069 15.502 2.569l8.887.094c12.385.151 26.413.553 38.728.181l134.667.047q24.916-.112 49.83.119c.075 9.215-.29 21.627.111 30.604 8.661-.549 23.551-.131 32.594-.139.382-13.509.027-28.758.121-42.457 13.653.221 29.33-.397 42.479.064-.141 13.369-.617 29.165.028 42.419l.013 42.586c-.046 14.006-.3 28.66-.017 42.613-12.057.477-30.328.194-42.501-.106-8.862-.357-18.857-.147-27.802-.153.005-2.908.149-4.889-.551-7.735-.109-9.586-4.247-14.623-14.208-10.947-.849.956-2.709 3.005-2.978 4.189-2.123 9.329-.627 22.111-1.017 31.828-.797-4.008-.551-12.669-.518-17.031q-19.285-.312-38.571-.126c-.499 11.581-.002 23.237-.097 34.833-.022 2.581-.071 5.382.067 7.936-13.934.023-28.371-.132-42.26.128-.051 5.486-1.047 36.282 1.265 38.494l.941.818c.916 20.155-18.145 47.373-39.165 27.645a55 55 0 0 1-7.028-8.157c-4.434-5.884-10.143-24.421-13-32.266-5.261-14.447-9.983-29.636-15.576-43.985a476 476 0 0 0-11.753 14.563c-1.964-2.603-5.526-12.298-7.04-15.815-8.622-20.027-17.308-41.116-38.021-50.984-17.292-5.557-29.054 1.426-40.963 13.728-1.314-3.095-.701-24.998-.691-29.576-3.931-.39-10.956-.156-15.074-.143l-26.98.143c-4.397.092-11.237.193-15.481-.419-16.874 8.901-33.068 22.875-45.205 37.505.748-10.874 2.908-25.941 5.625-36.585-2.666-1.106-25.618-.4-30.41-.437l-.066-42.544c-.506-12.501.034-29.36.068-42.241 13.616-.44 28.893-.143 42.637-.18"/><path fill="#4ec3a6" d="M341.612 297.582c13.235-.044 29.549-.526 42.506-.067-.074 3.808-.63 13.348.728 16.409l.578.447c15.536-5.966 24.988-7.91 41.293-8.849 6.616.029 11.655.131 18.305.98 5.025.641 10.668 2.069 15.502 2.569 2.727 1.46 8.472 3.015 11.736 4.067 20.533 6.62 38.872 19.324 56.059 32.146 22.361 16.683 44.737 14.655 71.069 14.227-16.372 22.929-35.224 44.397-51.882 67.183-2.429 3.322-5.322 7.081-7.982 10.23 7.367 14.206 12.703 29.959 18.169 45.022 1.87 5.153 6.092 16.266 7.235 21.022l2.159 5.928c2.668.063 11.322-.191 12.73.976l.731-2.626c1.79-1.216 15.218-.747 18.246-.734l.941.818c.916 20.155-18.145 47.373-39.165 27.645a55 55 0 0 1-7.028-8.157c-4.434-5.884-10.143-24.421-13-32.266-5.261-14.447-9.983-29.636-15.576-43.985a476 476 0 0 0-11.753 14.563c-1.964-2.603-5.526-12.298-7.04-15.815-8.622-20.027-17.308-41.116-38.021-50.984-17.292-5.557-29.054 1.426-40.963 13.728-1.314-3.095-.701-24.998-.691-29.576-3.931-.39-10.956-.156-15.074-.143l-26.98.143c-4.397.092-11.237.193-15.481-.419-16.874 8.901-33.068 22.875-45.205 37.505.748-10.874 2.908-25.941 5.625-36.585-2.666-1.106-25.618-.4-30.41-.437l-.066-42.544c-.506-12.501.034-29.36.068-42.241 13.616-.44 28.893-.143 42.637-.18"/><path fill="#f1f0f0" d="M424.414 364.722c11.497-1.32 34.578-2.162 45.985-.454 13.756 1.106 28.342 3.259 41.659 6.87 16.372 4.261 29.225 7.145 46.354 7.606-9.443 14.335-25.139 31.569-35.833 46.26-8.036-8.542-14.706-16.197-24.678-22.567 2.825 5.231 7.757 11.2 10.958 15.873 3.769 5.503 15.317 26.208 16.107 32.257a476 476 0 0 0-11.753 14.563c-1.964-2.603-5.526-12.298-7.04-15.815-8.622-20.027-17.308-41.116-38.021-50.984-17.292-5.557-29.054 1.426-40.963 13.728-1.314-3.095-.701-24.998-.691-29.576-.033-4.099.76-13.826-.445-17.204z"/><path fill="#fefefe" d="M426.498 382.483c13.355.558 29.551.095 43.119.047.023 2.871.414 14.076-.436 15.583l-1.029.218c-17.292-5.557-29.054 1.426-40.963 13.728-1.314-3.095-.701-24.998-.691-29.576"/><path fill="#fefefe" d="M470.399 364.268c13.756 1.106 28.342 3.259 41.659 6.87-.103 3.547.023 7.679.043 11.272q-21.266.231-42.533.089c-.037-3.465-.749-16.182.831-18.231"/><path fill="#f1f0f0" d="M341.612 297.582c13.235-.044 29.549-.526 42.506-.067-.074 3.808-.63 13.348.728 16.409l.578.447c-29.723 12.997-48.636 37.068-56.041 68.613-2.666-1.106-25.618-.4-30.41-.437l-.066-42.544c-.506-12.501.034-29.36.068-42.241 13.616-.44 28.893-.143 42.637-.18"/><path fill="#fefefe" d="M341.612 297.582a3609 3609 0 0 1-.141 42.396l-42.564.025c-.506-12.501.034-29.36.068-42.241 13.616-.44 28.893-.143 42.637-.18"/><path fill="#fefefe" d="M384.115 374.82c13.006-5.91 26.317-8.23 40.299-10.098l1.639.557c1.205 3.378.412 13.105.445 17.204-3.931-.39-10.956-.156-15.074-.143l-26.98.143c.089-2.79.286-4.909-.329-7.663"/><path fill="#fefefe" d="M567.087 508.896c2.668.063 11.322-.191 12.73.976-.586 3.454-.827 6.559-3.628 8.579-5.278.88-7.358-5.576-9.102-9.555"/><path fill="#f1f0f0" d="M384.115 374.82c.615 2.754.418 4.873.329 7.663-4.397.092-11.237.193-15.481-.419 5.313-2.948 9.465-5.098 15.152-7.244"/><path fill="#0f100f" d="M420.804 326.205c28.087-2.545 58.813 6.983 81.906 22.864a217.8 217.8 0 0 0-77.273-3.886c-29.539 4.027-40.548 9.468-67.12 20.739 9.312-24.597 37.824-37.505 62.487-39.717"/><path fill="#f1f0f0" d="M725.462 297.52c13.653.221 29.33-.397 42.479.064-.141 13.369-.617 29.165.028 42.419l.013 42.586c-.046 14.006-.3 28.66-.017 42.613-12.057.477-30.328.194-42.501-.106-8.862-.357-18.857-.147-27.802-.153.005-2.908.149-4.889-.551-7.735-.109-9.586-4.247-14.623-14.208-10.947-.849.956-2.709 3.005-2.978 4.189-2.123 9.329-.627 22.111-1.017 31.828-.797-4.008-.551-12.669-.518-17.031q-19.285-.312-38.571-.126c-.499 11.581-.002 23.237-.097 34.833-.022 2.581-.071 5.382.067 7.936-13.934.023-28.371-.132-42.26.128-.051 5.486-1.047 36.282 1.265 38.494-3.028-.013-16.456-.482-18.246.734l-.731 2.626c-1.408-1.167-10.062-.913-12.73-.976l-2.159-5.928c2.505-3.452 6.444-7.854 9.254-11.291l15.275-19.014a6915 6915 0 0 1 66.038-81.301 849 849 0 0 0 25.939-33.228c3.122-4.184 10.95-13.422 11.313-18.018 8.661-.549 23.551-.131 32.594-.139.382-13.509.027-28.758.121-42.457"/><path fill="#f1f0f0" d="M725.48 382.521c13.333-.024 29.391-.472 42.502.068-.046 14.006-.3 28.66-.017 42.613-12.057.477-30.328.194-42.501-.106z"/><path fill="#fefefe" d="m767.969 340.003.013 42.586c-13.111-.54-29.169-.092-42.502-.068l-.101-42.262c14.138-.179 28.515.115 42.59-.256"/><path fill="#fefefe" d="m725.48 382.521-.016 42.575c-8.862-.357-18.857-.147-27.802-.153.005-2.908.149-4.889-.551-7.735-.109-9.586-4.247-14.623-14.208-10.947-1.079-1.489-.419-20.454-.41-23.71z"/><path fill="#fefefe" d="M323.758 419.569c12.137-14.63 28.331-28.604 45.205-37.505 4.244.612 11.084.511 15.481.419l26.98-.143c4.118-.013 11.143-.247 15.074.143-.01 4.578-.623 26.481.691 29.576-3.561 4.521-6.375 8.431-9.287 13.423-14.368 28.528-18.911 52.537-23.144 83.966-.832 6.878-3.509 21.499-.386 27.178 1.151 2.142 3.23 4.425 5.753 4.902 14.893 2.816 13.506-19.272 14.171-28.122a154 154 0 0 1 2.491-18.283c4.719-23.857 18.141-55.473 47.976-49.43-10.334-11.291-19.193-10.058-32.125-5.259 3.251-7.336 5.847-11.384 11.34-17.2 9.5-8.145 17.418-8.543 25.634 2.099 8.456 9.037 20.713 34.864 24.813 48.111l-.031.556c-4.273 5.153-9.048 11.687-13.323 16.466-5.487-8.832-11.404-19.409-22.376-21.641-15.985-3.251-26.623 13.665-28.877 26.9a179 179 0 0 0-.741 4.838q10.087.183 20.176.026c.888-3.934 1.546-9.856 6.549-9.729 5.085 2.486 9.404 13.891 11.435 19.09l1.811 5.625-31.842 38.32-9.685 11.822c-7.911 10.344-16.582 20.44-24.908 30.492l-17.335 21.944c-15.797 19.379-32.692 38.728-47.165 59.175-.862 1.218-1.127 2.595-1.27 4.054l-37.885.12c-.632-12.427-.028-30.396.017-43.073l.003-42.529c7.799-.017 21.872.286 30.141-.191l1.171-1.106c-2.247-4.981-1.158-33.796-1.095-41.534l-.009-42.562c-.213-14.19.112-28.497-.055-42.754-.147-9.471 3.104-17.132 13.856-12.964-3.611-6.838.205-26.133-1.8-32.255-.077 1.351-.066 1.254-.788 2.405-1.888.808-36.092.276-41.492.292l.066-42.684c4.792.037 27.744-.669 30.41.437-2.717 10.644-4.877 25.711-5.625 36.585"/><path fill="#4ec3a6" d="M361.028 467.947c.001-7.532-1.705-32.597 2.361-37.191a9.62 9.62 0 0 1 6.965-3.185c10.836-.272 8.835 15.266 8.848 22.561-.018 20.052.273 40.427.068 60.433l.002 42.236c1.64.104 3.325-.057 4.485.934.57 4.455.221 10.569.255 15.163.065 8.936-.074 17.944.035 26.882-6.421.07-33.652.721-38.176-.39-1.952 2.081-2.342 2.571-4.8 3.961-5.92.223-7.046-.018-10.781-4.748-2.247-4.981-1.158-33.796-1.095-41.534l-.009-42.562c-.213-14.19.112-28.497-.055-42.754-.147-9.471 3.104-17.132 13.856-12.964 4.077 4.014 4.029 5.349 4.153 11.021.553 1.216.423 1.658 1.309 1.836 3.887.784 8.607.242 12.579.301"/><path fill="#4ec3a6" d="M329.131 467.753c-.147-9.471 3.104-17.132 13.856-12.964 4.077 4.014 4.029 5.349 4.153 11.021l-.013 81.078c.058 14.073.269 28.333.161 42.405-.017 2.179-.446 4.141-1.417 6.097-1.952 2.081-2.342 2.571-4.8 3.961-5.92.223-7.046-.018-10.781-4.748-2.247-4.981-1.158-33.796-1.095-41.534l-.009-42.562c-.213-14.19.112-28.497-.055-42.754"/><path fill="#f1f0f0" d="M347.14 465.81c.553 1.216.423 1.658 1.309 1.836 3.887.784 8.607.242 12.579.301l.072 42.391-.054 42.625c-.126 7.228-1.844 20.113 9.168 19.817a8.39 8.39 0 0 0 6.046-2.729c3.452-3.833 2.996-12.224 3.012-17.25 1.64.104 3.325-.057 4.485.934.57 4.455.221 10.569.255 15.163.065 8.936-.074 17.944.035 26.882-6.421.07-33.652.721-38.176-.39.971-1.956 1.4-3.918 1.417-6.097.108-14.072-.103-28.332-.161-42.405z"/><path fill="#fefefe" d="M347.66 510.406c4.67.116 8.769.074 13.44-.068l-.054 42.625c-4.319-.119-9.008-.022-13.357-.017z"/><path fill="#f1f0f0" d="M330.29 594.603c3.735 4.73 4.861 4.971 10.781 4.748 1.483 10.307-.054 27.949.691 39.117-13.269.015-29.79.507-42.787-.039l.003-42.529c7.799-.017 21.872.286 30.141-.191z"/><path fill="#f1f0f0" d="m384.444 382.483 26.98-.143c4.118-.013 11.143-.247 15.074.143-.01 4.578-.623 26.481.691 29.576-3.561 4.521-6.375 8.431-9.287 13.423a899 899 0 0 0-33.571-.402c.2-14.203-.206-28.292.113-42.597"/><path fill="#f1f0f0" d="M384.02 595.8c4.624-.083 14.612-.8 18.593.409l-17.335 21.944c-2.066-5.287-1.307-16.443-1.258-22.353"/><path fill="#f1f0f0" d="M379.202 450.132c1.561 2.362-.879 15.713 1.109 17.736.253.258 3.14-.143 4.036-.251.428 1.105.282.592.109 1.882-1.339 9.927-.075 20.63-.475 30.729-.116 2.932.309 6.851-.307 9.576-1.56.881-2.607.723-4.404.761.205-20.006-.086-40.381-.068-60.433"/><path fill="#f1f0f0" d="M426.909 553c3.989.033 6.458-.106 10.297.895l-9.685 11.822c-1.545-2.299-.727-9.599-.612-12.717"/><path fill="#4ec3a6" d="M427.189 412.059c11.909-12.302 23.671-19.285 40.963-13.728 20.713 9.868 29.399 30.957 38.021 50.984 1.514 3.517 5.076 13.212 7.04 15.815a476 476 0 0 1 11.753-14.563c5.593 14.349 10.315 29.538 15.576 43.985 2.857 7.845 8.566 26.382 13 32.266a55 55 0 0 0 7.028 8.157c21.02 19.728 40.081-7.49 39.165-27.645l-.941-.818c-2.312-2.212-1.316-33.008-1.265-38.494 13.889-.26 28.326-.105 42.26-.128-.138-2.554-.089-5.355-.067-7.936.095-11.596-.402-23.252.097-34.833q19.286-.186 38.571.126c-.033 4.362-.279 13.023.518 17.031q.176 12.801.105 25.604l-.085 54.144c-.021 7.151.297 21.168-.353 27.661l.069 3.603c-.08 7.067-.48 9.37 4.862 14.495-1.148 2.415-.845 23.778-.997 28.223-9.781-.323-17.868.581-27.554-1.519-4.535-1.703-7.53-2.904-8.091-8.309-.736-7.07-.332-14.603-.235-21.705q.32-17.55.174-35.101c-.939-1.513-.522-16.215-.507-18.92l-6.297-.047c-2.375-.007-5.863.326-7.742-.748-2.11 14.461-3.976 29.642-7.943 43.717-4.601 18.935-13.637 40.569-27.676 54.307-13.326 10.602-26.212 12.633-41.12 3.366-6.186-4.786-10.197-9.736-14.914-15.889-3.148.144-15.833-.062-17.475.841-2.867-3.406-9.731-17.505-11.226-21.975-.83-3.202-6.387-16.71-7.921-20.919l-16.353-46.01c-1.976-5.472-4.766-11.254-6.558-16.631 4.275-4.779 9.05-11.313 13.323-16.466l.031-.556c-4.1-13.247-16.357-39.074-24.813-48.111-8.216-10.642-16.134-10.244-25.634-2.099-5.493 5.816-8.089 9.864-11.34 17.2 12.932-4.799 21.791-6.032 32.125 5.259-29.835-6.043-43.257 25.573-47.976 49.43a154 154 0 0 0-2.491 18.283c-.665 8.85.722 30.938-14.171 28.122-2.523-.477-4.602-2.76-5.753-4.902-3.123-5.679-.446-20.3.386-27.178 4.233-31.429 8.776-55.438 23.144-83.966 2.912-4.992 5.726-8.902 9.287-13.423"/><path fill="#fefefe" d="M639.819 425.121q19.286-.186 38.571.126c-.033 4.362-.279 13.023.518 17.031q.176 12.801.105 25.604l-.085 54.144c-.021 7.151.297 21.168-.353 27.661l.069 3.603c-.08 7.067-.48 9.37 4.862 14.495-1.148 2.415-.845 23.778-.997 28.223-9.781-.323-17.868.581-27.554-1.519-4.535-1.703-7.53-2.904-8.091-8.309-.736-7.07-.332-14.603-.235-21.705q.32-17.55.174-35.101c-.939-1.513-.522-16.215-.507-18.92l-6.297-.047c-2.375-.007-5.863.326-7.742-.748.696-6.584 3.394-20.212-1.161-25.181-6.798-7.417-16.009-1.946-17.397 7.231-1.047 6.927-.531 13.364-1.472 20.238-2.158 22.192-13.597 55.303-41.13 54.643a89 89 0 0 1-5.306-.288c9.649 10.926 19.84 10.081 31.929 4.639-3.57 8.212-10.225 19.875-18.993 23.36a13.42 13.42 0 0 1-10.895-.329c-11.834-5.583-25.137-37.187-28.139-49.948l13.849-17.206a55 55 0 0 0 7.028 8.157c21.02 19.728 40.081-7.49 39.165-27.645l-.941-.818c-2.312-2.212-1.316-33.008-1.265-38.494 13.889-.26 28.326-.105 42.26-.128-.138-2.554-.089-5.355-.067-7.936.095-11.596-.402-23.252.097-34.833"/><path fill="#4ec3a6" d="M646.701 468.087c-.079-5.651-1.448-22.029 2.919-26.793 3.926-4.284 12.553-3.368 14.496 2.62 1.394 4.297.924 11.797.98 16.801.592 2.823.538 4.406.567 7.241l13.35-.074-.085 54.144c-.021 7.151.297 21.168-.353 27.661l.069 3.603c-.08 7.067-.48 9.37 4.862 14.495-1.148 2.415-.845 23.778-.997 28.223-9.781-.323-17.868.581-27.554-1.519-4.535-1.703-7.53-2.904-8.091-8.309-.736-7.07-.332-14.603-.235-21.705q.32-17.55.174-35.101c-.939-1.513-.522-16.215-.507-18.92l-6.297-.047c-.406-13.615.035-28.624-.102-42.48z"/><path fill="#f1f0f0" d="M665.096 460.715c.592 2.823.538 4.406.567 7.241l13.35-.074-.085 54.144c-.021 7.151.297 21.168-.353 27.661l.069 3.603c-4.373-.032-8.594-.069-12.971.086-.006-2.801.3-8.098-.546-10.458-.287-9.052-.138-19.598-.031-28.631-.461-16.784-.126-36.67 0-53.572"/><path fill="#fefefe" d="M665.096 514.287c.286-1.601.215-3.459 1.566-3.962 2.816-1.05 8.342-.207 11.669-.221l-.039 25.658c-.003 3.437-.175 10.73.283 13.925l.069 3.603c-4.373-.032-8.594-.069-12.971.086-.006-2.801.3-8.098-.546-10.458-.287-9.052-.138-19.598-.031-28.631"/><path fill="#f1f0f0" d="M665.127 542.918c.846 2.36.54 7.657.546 10.458 4.377-.155 8.598-.118 12.971-.086-.08 7.067-.48 9.37 4.862 14.495-1.148 2.415-.845 23.778-.997 28.223-9.781-.323-17.868.581-27.554-1.519 4.599-.774 9.462-2.937 9.824-8.336.959-14.321.173-28.84.348-43.235"/><path fill="#f1f0f0" d="m639.897 467.927 6.804.16q.273 30.643.102 61.287c-.939-1.513-.522-16.215-.507-18.92l-6.297-.047c-.406-13.615.035-28.624-.102-42.48"/><path fill="#0f100f" d="M494.394 474c2.657 5.424 6.254 16.396 8.331 22.432a1933 1933 0 0 1 14.059 42.501c1.324 4.138 5.144 17.233 6.596 20.2a601 601 0 0 1-11.477 14.893c-.83-3.202-6.387-16.71-7.921-20.919l-16.353-46.01c-1.976-5.472-4.766-11.254-6.558-16.631 4.275-4.779 9.05-11.313 13.323-16.466"/><path fill="#0f100f" d="M524.966 450.567c5.593 14.349 10.315 29.538 15.576 43.985 2.857 7.845 8.566 26.382 13 32.266l-13.849 17.206c-1.676-3.601-3.633-9.157-4.734-13.019-6.255-21.956-15.388-44.087-21.746-65.875a476 476 0 0 1 11.753-14.563"/><path fill="#f1f0f0" d="M523.38 559.133c1.764 3.244 3.883 9.532 5.262 13.187 3.183 8.44 6.671 15.483 11.962 22.84-3.148.144-15.833-.062-17.475.841-2.867-3.406-9.731-17.505-11.226-21.975a601 601 0 0 0 11.477-14.893"/><path fill="#0f100f" d="M469.048 515.575c5.882 16.186 18.226 52.665 26.173 65.456-13.9 19.273-29.52 37.439-44.085 56.181-5.438 6.998-14.655 17.88-19.26 25.185 19.554.051 45.855-1.415 63.024 8.19 14.944 8.36 27.386 21.334 43.045 29.683a121 121 0 0 0 13.659 6.135c3.349 1.276 17.787 5.807 19.364 7.026-7.148-.5-15.609-.418-22.773-.328-7.955-.519-22.821-.089-30.889.015l-121.669-.034c-18.293-.032-40.451.55-58.431-.289-.445-9.885.53-21.69-.363-31.413.143-1.459.408-2.836 1.27-4.054 14.473-20.447 31.368-39.796 47.165-59.175l17.335-21.944c8.326-10.052 16.997-20.148 24.908-30.492l9.685-11.822z"/><path fill="#fefefe" d="M632.257 509.659c1.879 1.074 5.367.741 7.742.748l6.297.047c-.015 2.705-.432 17.407.507 18.92q.145 17.551-.174 35.101c-.097 7.102-.501 14.635.235 21.705.561 5.405 3.556 6.606 8.091 8.309 9.686 2.1 17.773 1.196 27.554 1.519-.058 9.512-.351 19.708-.241 29.125-12.388 10.466-37.935 25.764-54.198 28.256-9.613 2.98-20.843 4.598-30.828 5.903-.035-5.524.567-15.933-.082-20.867l-42.293.038c.181-6.487-.64-21.981.651-27.414 14.908 9.267 27.794 7.236 41.12-3.366 14.039-13.738 23.075-35.372 27.676-54.307 3.967-14.075 5.833-29.256 7.943-43.717"/><path fill="#f1f0f0" d="M596.638 607.683c1.434 5.683.456 23.803.686 30.782 16.107.005 38.378-.806 54.021.001l-.07.217c-6.774.572-14.048.318-20.889.316l-32.383.004c-.036 4.163-.417 15.726.22 19.064 2.309.374 12.421-1.852 15.144-2.236 4.361-.614 10.376-3.011 14.703-2.442-9.613 2.98-20.843 4.598-30.828 5.903-.035-5.524.567-15.933-.082-20.867l-42.293.038c.181-6.487-.64-21.981.651-27.414 14.908 9.267 27.794 7.236 41.12-3.366"/><path fill="#f1f0f0" d="M632.257 509.659c1.879 1.074 5.367.741 7.742.748-.047 14.128-.224 28.703.03 42.818-4.778.093-11.053.392-15.715.151 3.967-14.075 5.833-29.256 7.943-43.717"/><path fill="#fefefe" d="M511.164 594.038c9.743 9.562 13.105 13.503 25.03 20.407-4.827-6.725-8.712-10.844-13.065-18.444 1.642-.903 14.327-.697 17.475-.841 4.717 6.153 8.728 11.103 14.914 15.889-1.291 5.433-.47 20.927-.651 27.414l42.293-.038c.649 4.934.047 15.343.082 20.867-15.336 1.431-27.634 1.158-42.87-.607-15.28-2.283-27.183-4.959-42.297-8.361a238.6 238.6 0 0 0-39.318-6.952 1686 1686 0 0 1 38.407-49.334"/><path fill="#f1f0f0" d="M512.128 638.515c14.444.379 27.907.119 42.315.091l-.071 20.079c-15.28-2.283-27.183-4.959-42.297-8.361z"/><path fill="#0f100f" d="M669.394 657.006c-.024.986.11.964-.389 1.786-27.41 45.146-84.409 45.721-126.748 23.159-4.652-2.363-7.992-4.814-12.253-7.778 9.373 1.335 17.854 3.143 27.532 4.075 39.793 3.833 76.814-1.388 111.858-21.242"/><path fill="#f1f0f0" d="M0 0h256.333c-.288 13.283-.358 29.395.1 42.627l.063 42.442c14.111.075 28.339-.157 42.422-.018 13.517-.03 29.282-.467 42.614-.007.006 13.424-.401 29.14.058 42.363.019 13.931.27 28.733-.073 42.622-13.821-.024-28.804-.321-42.53.104-10.673.851-30.963.101-42.435.101-.032 13.935-.264 28.367-.061 42.26l-.01 42.504c-13.503-.381-28.857.001-42.508.018l-42.671.017c.26-13.607-.153-28.747-.134-42.516l-42.407.077.101 42.415-42.878-.011c-13.799-.318-28.662-.033-42.506.011L0 254.905V0"/><path fill="#f1f0f0" d="M298.918 85.051c13.517-.03 29.282-.467 42.614-.007.006 13.424-.401 29.14.058 42.363.019 13.931.27 28.733-.073 42.622-13.821-.024-28.804-.321-42.53.104-10.673.851-30.963.101-42.435.101-.032 13.935-.264 28.367-.061 42.26l-.01 42.504c-13.503-.381-28.857.001-42.508.018-.448-13.244-.036-29.004-.055-42.491q-.09-21.254.065-42.507c13.896-.263 28.548-.038 42.507-.054l.018-42.577-.012-42.318c14.111.075 28.339-.157 42.422-.018"/><path fill="#fefefe" d="m298.986 127.297 42.604.11c.019 13.931.27 28.733-.073 42.622-13.821-.024-28.804-.321-42.53.104z"/><path fill="#fefefe" d="m256.491 212.494-.01 42.504c-13.503-.381-28.857.001-42.508.018-.448-13.244-.036-29.004-.055-42.491 13.362.135 29.271.382 42.573-.031"/><path fill="#fefefe" d="M256.496 85.07c14.111.075 28.339-.158 42.422-.019l.024 42.18c-13.341.402-29.073.465-42.434.156z"/><path fill="#f1f0f0" d="M0 0h86.107l-.054 42.525c-14.15.388-28.655-.166-42.587.324.017 13.785-.34 28.493-.158 42.148L0 85.052V0"/><path fill="#fefefe" d="M0 0h43.237l.157 42.482L0 42.594z"/><path fill="#fefefe" d="M171.466 0h84.867c-.288 13.283-.358 29.395.1 42.627l-42.512.17c-11.032-.953-30.3.064-42.638-.278-.603-11.599.125-30.47.183-42.519"/><path fill="#f1f0f0" d="M213.962 0h42.371c-.288 13.283-.358 29.395.1 42.627l-42.512.17z"/><path fill="#fefefe" d="M128.707 42.645q21.24.118 42.479-.078c.052 13.56.464 29.012.012 42.42-13.902.018-28.692.301-42.519.016-.012 13.84-.25 28.378.074 42.155q-21.358.365-42.72.052c0-13.431.392-28.908-.037-42.16 13.991.282 28.633.046 42.673.01q-.225-21.209.038-42.415"/><path fill="#f1f0f0" d="M0 212.47c12.065-.006 32.036-.681 43.437.062q.175 21.238.041 42.477L0 254.905z"/><path fill="#fefefe" d="M43.479 170.004c-.026 13.521-.46 29.194-.042 42.528-11.4-.743-31.372-.068-43.437-.062v-42.224c14.455-.131 29.063.035 43.479-.242"/><path fill="#fefefe" d="m43.308 84.997-.078 42.039c-13.562.413-29.675.577-43.23.142V85.052z"/><path fill="#fefefe" d="M86.108 0h42.8a1255 1255 0 0 0-.156 42.46c-13.967.02-28.812-.23-42.699.065z"/><path fill="#fefefe" d="m43.526 127.303 42.443.065-.043 42.594-42.447.042z"/><path fill="#fefefe" d="M213.974 127.383c14.193-.098 28.331.188 42.534.004l-.018 42.577c-13.959.016-28.611-.209-42.507.054a3564 3564 0 0 1-.009-42.635"/><path fill="#fefefe" d="M213.983 170.018a3695 3695 0 0 0-.065 42.507c-12.578-.599-29.773-.045-42.807-.064q-.016-21.118.182-42.236c12.708.298 30.107.292 42.69-.207"/><path fill="#fefefe" d="m85.942 170.172 42.766-.131c-.143 13.67.322 29.095-.127 42.417l-42.59.062c-.03-13.967-.244-28.408-.049-42.348"/><path fill="#fefefe" d="m213.996 85.046-.027 42.092c-12.125.468-30.656.674-42.71-.016-.369-13.346.054-28.442.017-42.016z"/><path fill="#fefefe" d="m256.433 42.627.063 42.442c-13.208-.451-29.021-.017-42.5-.023-.26-13.797-.004-28.354-.075-42.249z"/><path fill="#fefefe" d="M86.053 42.525q-.17 21.263-.057 42.524c-12.773-.565-29.595-.054-42.688-.052-.183-13.655.175-28.363.158-42.148 13.932-.49 28.436.064 42.587-.324"/><path fill="#fefefe" d="M43.437 212.532q13.655.223 27.312.117c4.091-.006 11.532.195 15.242-.129l-.007 42.478c-13.799-.318-28.662-.033-42.506.011q.135-21.239-.041-42.477"/><path fill="#fefefe" d="M135.851 127.244q17.676-.108 35.351.027c.466 13.398.127 29.076.11 42.661l-6.437.04-36.105-.02c-.728-12.177-.165-30.138-.112-42.625z"/><path fill="#f1f0f0" d="m128.761 212.594 42.407-.077c-.019 13.769.394 28.909.134 42.516l42.671-.017c13.651-.017 29.005-.399 42.508-.018l.012 42.554.004 42.467 42.41-.016.066 42.544-.066 42.684c5.4-.016 39.604.516 41.492-.292.722-1.151.711-1.054.788-2.405 2.005 6.122-1.811 25.417 1.8 32.255-10.752-4.168-14.003 3.493-13.856 12.964.167 14.257-.158 28.564.055 42.754-3.241-.096-11.031-.596-13.781.137l-.214 19.841c-.022 6.243 1.052 14.89-3.767 19.565-4.061 3.94-9.29.389-12.492-2.741-4.15-9.393-.865-26.048-1.491-37.395-4.569.291-9.071.327-13.644.396-3.172-11.22-14.153-10.979-19.068-.45l-8.207.316c.258-13.821-.016-28.455-.048-42.338a3558 3558 0 0 1-42.595.059c-13.872-.31-28.664-.006-42.605.058l.018 42.339a2934 2934 0 0 1-42.578.068c-.763-11.654-.138-30.317-.073-42.517-13.834-.311-28.596.12-42.624.018a3925 3925 0 0 0-42.582.099c-14.036-.315-29.3.006-43.435.022V254.905l43.478.104c13.844-.044 28.707-.329 42.506-.011l42.878.011z"/><path fill="#f1f0f0" d="m0 254.905 43.478.104c13.844-.044 28.707-.329 42.506-.011l.028 42.561-.044 42.448c-13.595-.372-28.87-.014-42.6-.005q.108 21.254-.065 42.508L0 382.478V254.905"/><path fill="#fefefe" d="m0 254.905 43.478.104-.053 42.557L0 297.536z"/><path fill="#fefefe" d="M43.368 340.002q.108 21.254-.065 42.508L0 382.478V339.99c14.15.012 29.306.312 43.368.012"/><path fill="#fefefe" d="m86.012 297.559-.044 42.448c-13.595-.372-28.87-.014-42.6-.005l.137-42.085c14.077-.306 28.513.139 42.506-.358"/><path fill="#fefefe" d="M43.368 340.002c13.73-.009 29.005-.367 42.6.005l.043 42.509-.024 42.747c-13.398.128-29.23.532-42.511-.039a3025 3025 0 0 0-.04 42.738c-14.037-.315-29.3.006-43.436.022v-85.506l43.303.032q.173-21.254.065-42.508"/><path fill="#f1f0f0" d="m0 382.478 43.303.032c.321 14.089.16 28.645.16 42.773-12.989-.48-30.412-.399-43.463-.1z"/><path fill="#f1f0f0" d="M43.368 340.002c13.73-.009 29.005-.367 42.6.005l.043 42.509c-13.29.42-29.207.01-42.708-.006q.173-21.254.065-42.508"/><path fill="#fefefe" d="m128.761 212.594 42.407-.077c-.019 13.769.394 28.909.134 42.516l42.671-.017c13.651-.017 29.005-.399 42.508-.018l.012 42.554.004 42.467c-13.528-.375-28.868-.007-42.545-.003-.339-3.169-.139-10.683-.145-14.125l-.107-28.317c-14.094-.196-28.211.258-42.403.007-.576-12.487.119-29.447.034-42.58l-42.469.008z"/><path fill="#f1f0f0" d="M213.973 255.016c13.651-.017 29.005-.399 42.508-.018l.012 42.554-42.538.182z"/><path fill="#fefefe" d="m128.587 382.704 42.684-.21c.07 13.376.512 29.706-.092 42.842l-42.516-.148-.022 42.657c-13.834-.311-28.596.12-42.624.018l.01-42.596q21.274.123 42.547.018z"/><path fill="#fefefe" d="M171.303 425.521a4160 4160 0 0 0 42.683-.168l-.107 42.544c-13.872-.31-28.664-.006-42.605.058l.018 42.339a2934 2934 0 0 1-42.578.068c-.763-11.654-.138-30.317-.073-42.517 14.255.259 28.388-.011 42.618.045-.235-13.923-.001-28.404.044-42.369"/><path fill="#fefefe" d="m85.968 340.007 42.883.014c.146 13.551.234 28.94-.204 42.445l-42.636.05z"/><path fill="#fefefe" d="M128.575 297.698q21.407-.146 42.812.008c-.005 13.928.176 28.404-.142 42.286l-42.394.029c-.98-9.867-.312-31.743-.276-42.323"/><path fill="#fefefe" d="m85.984 254.998 42.878.011c-.636 14.112.017 28.423-.316 42.458-14.08.021-28.482-.118-42.534.092z"/><path fill="#fefefe" d="m256.493 382.498-.015 42.619-42.452.085c-.664-12.444-.082-29.858.012-42.506z"/><path fill="#fefefe" d="m298.907 340.003.066 42.544c-12.354-.642-29.797-.079-42.48-.049l.004-42.479z"/><path fill="#fefefe" d="M256.525 425.865c1.585-.718 38.253-.47 42.411-.482l-.019 42.523c-11.26-.539-30.737-.23-42.406-.077z"/><path fill="#fefefe" d="m171.362 340.081 42.59-.065.034 42.437-42.753.013c-.224-13.679.172-28.53.129-42.385"/><path fill="#4ec3a6" d="M300.02 483.406c18.284-10.15 15.435 17.685 15.385 27.238l-.214 19.841c-.022 6.243 1.052 14.89-3.767 19.565-4.061 3.94-9.29.389-12.492-2.741-4.15-9.393-.865-26.048-1.491-37.395-1.348-6.911-1.5-20.636 2.579-26.508"/><path fill="#fefefe" d="M298.917 467.906q15.108.194 30.214-.153c.167 14.257-.158 28.564.055 42.754-3.241-.096-11.031-.596-13.781.137.05-9.553 2.899-37.388-15.385-27.238-1.9-1.369-1.14-12.768-1.103-15.5"/><path fill="#f1f0f0" d="M603.867 716.679c12.671-.247 24.34-3.102 36.152-7.493l-.001 15.318q-.121 21.428.017 42.855 21.237.207 42.473-.04c.016 13.366-.442 29.596.068 42.671l-.092 42.503.053 42.775a2226 2226 0 0 0-42.46-.03 3426 3426 0 0 0-.069 42.773c.011 14.2.172 28.684-.005 42.861-.084 13.844-.542 29.388-.235 43.128H512.08q.104-21.615-.059-43.232-.141-21.382-.022-42.765l-42.529.01c-.301-13.849-.004-28.853.006-42.766l42.557.002a1967 1967 0 0 1-.026-42.774l.014-42.567-.003-42.628-.025-42.803c.016-3.578-1.217-8.532 1.289-10.598a88 88 0 0 0 4.024-.761c8.068-.104 22.934-.534 30.889-.015 7.164-.09 15.625-.172 22.773.328l.601.061c5.408.59 10.688 1.867 16.032 2.524 5.072.624 11.107.663 16.266.663"/><path fill="#fefefe" d="M603.867 716.679c12.671-.247 24.34-3.102 36.152-7.493l-.001 15.318c-14.117-.222-28.567.208-42.517-.117l-.094 42.75c-11.925.531-30.637.42-42.713.088.342 14.13-.067 28.585-.038 42.752l-42.635-.069-.003-42.628-.025-42.803c.016-3.578-1.217-8.532 1.289-10.598a88 88 0 0 0 4.024-.761c8.068-.104 22.934-.534 30.889-.015 7.164-.09 15.625-.172 22.773.328l.601.061c5.408.59 10.688 1.867 16.032 2.524 5.072.624 11.107.663 16.266.663"/><path fill="#f1f0f0" d="M548.195 713.103c7.164-.09 15.625-.172 22.773.328l.601.061c5.408.59 10.688 1.867 16.032 2.524 5.072.624 11.107.663 16.266.663-1.377.874-4.678.529-6.504.495l.124 7.33-42.685.16c-.226 13.177-.632 29.638-.147 42.646l-42.637-.03-.025-42.803c.016-3.578-1.217-8.532 1.289-10.598a88 88 0 0 0 4.024-.761c8.068-.104 22.934-.534 30.889-.015"/><path fill="#fefefe" d="M517.306 713.118c8.068-.104 22.934-.534 30.889-.015 2.641.71 3.811.618 6.482.616l-.008 10.728-42.676.03c.016-3.578-1.217-8.532 1.289-10.598a88 88 0 0 0 4.024-.761"/><path fill="#fefefe" d="m512.007 852.475 42.773.037-.261 42.59q-21.261.351-42.526.14l.006 42.761-42.529.01c-.301-13.849-.004-28.853.006-42.766l42.557.002a1967 1967 0 0 1-.026-42.774"/><path fill="#fefefe" d="M554.69 980.941c14.074-.054 28.777-.33 42.799-.105l.001 43.164h-42.725a2176 2176 0 0 1-.075-43.059"/><path fill="#fefefe" d="M554.874 895.31c12.765-.069 30.455.532 42.607-.1-.047 14.013.258 28.915-.116 42.809-14.043-.057-28.644.24-42.585-.035-.276-5.788-.965-38.518.094-42.674"/><path fill="#fefefe" d="m511.999 938.003 42.73.025q.186 21.378-.176 42.755c-14.127-.321-28.391.109-42.532-.015q-.141-21.382-.022-42.765"/><path fill="#fefefe" d="M640.008 938.011c.011 14.2.172 28.684-.005 42.861-3.11-.421-11.676-.265-15.011-.251a927 927 0 0 1-27.505-.048c-.321-13.761-.116-28.75-.122-42.554z"/><path fill="#fefefe" d="M640.014 852.456c.187 13.315.579 29.504.071 42.608a962 962 0 0 1-42.233-.001c-.834-2.12-.38-36.814-.528-42.235 13.484-.675 28.913.003 42.69-.372"/><path fill="#fefefe" d="M597.51 810.004q.078 21.244-.116 42.486l-42.568-.007c-.897-9.711-.19-32.042-.134-42.452z"/><path fill="#f1f0f0" d="M640.035 767.359q21.237.207 42.473-.04c.016 13.366-.442 29.596.068 42.671-13.825.04-28.841.367-42.569-.011.161-14.127.033-28.476.028-42.62"/><path fill="#fefefe" d="M597.501 767.323c14.159-.211 28.334.181 42.534.036.005 14.144.133 28.493-.028 42.62-11.519-.711-30.422-.088-42.497.025z"/><path fill="#fefefe" d="M640.007 809.979c13.728.378 28.744.051 42.569.011l-.092 42.503c-13.805-.317-28.59-.046-42.47-.037-.158-14.073-.018-28.385-.007-42.477"/><path fill="#f1f0f0" d="M86.017 467.863c14.028.102 28.79-.329 42.624-.018-.065 12.2-.69 30.863.073 42.517.092 14.301-.175 28.446-.006 42.789-13.917.442-28.674.209-42.657.147l-.1 42.675.09 42.479c-11.484.565-30.96.205-42.62-.008-12.825-.603-30.24-.038-43.421-.013V467.984c14.136-.016 29.4-.337 43.435-.022q21.291-.165 42.582-.099"/><path fill="#fefefe" d="M0 467.984c14.136-.016 29.4-.337 43.435-.022q.14 21.18.03 42.361c-.044 14.096.164 28.885-.156 42.908L0 553.185v-85.201"/><path fill="#f1f0f0" d="M0 467.984c14.136-.016 29.4-.337 43.435-.022q.14 21.18.03 42.361c-11.714.777-31.168.062-43.465-.039z"/><path fill="#fefefe" d="M0 595.702c13.997.308 29.335.552 43.318.117l.103 42.625c-12.825-.603-30.24-.038-43.421-.013z"/><path fill="#fefefe" d="M86.032 510.42c13.973.215 28.689.087 42.682-.058.092 14.301-.175 28.446-.006 42.789-13.917.442-28.674.209-42.657.147z"/><path fill="#f1f0f0" d="M43.318 595.819c13.715.082 29.046-.26 42.633.154l.09 42.479c-11.484.565-30.96.205-42.62-.008z"/><path fill="#fefefe" d="M43.413 553.332c13.425.358 29.193.283 42.638-.034l-.1 42.675c-13.587-.414-28.918-.072-42.633-.154-.31-4.272-.007-10.912.022-15.433z"/><path fill="#fefefe" d="M43.435 467.962q21.291-.165 42.582-.099l-.022 42.291q-21.263.405-42.53.169.11-21.18-.03-42.361"/><path fill="#fefefe" d="M426.638 852.675q21.454-.236 42.907-.132c-.024 13.971.185 28.608-.084 42.528-13.83.292-28.855.166-42.74.019-.02 13.727.343 29.264-.058 42.862-13.919.044-28.559.315-42.419.047.061 12.883.627 30.372-.043 42.865-14.105-.296-28.298-.078-42.416-.267-.591-13.252-.242-28.896-.254-42.329l42.612-.244c-.063-13.946-.347-28.867.005-42.783 13.305-.079 29.272-.503 42.49.069a3223 3223 0 0 1 0-42.635"/><path fill="#fefefe" d="m128.643 724.637 42.757-.148c.123 13.754.344 28.897-.056 42.584q-21.312.48-42.626.102c-.148 14.038.313 29.067.012 42.79l-42.68.04c.279-13.896-.025-28.873-.04-42.859-.2-14.025-.009-28.536-.01-42.601z"/><path fill="#f1f0f0" d="m86 724.545 42.643.092a2988 2988 0 0 0-.064 42.654c-13.905-.096-28.79.15-42.568-.145-.202-14.025-.01-28.536-.012-42.601"/><path fill="#fefefe" d="M426.58 767.286c14.195.227 28.684-.077 42.971.082q21.234.077 42.467-.088l.003 42.628q-21.264.166-42.53.11l-42.855-.044z"/><path fill="#f1f0f0" d="M469.551 767.368q21.234.077 42.467-.088l.003 42.628q-21.264.166-42.53.11z"/><path fill="#fefefe" d="M299.027 724.789a3489 3489 0 0 1 42.674-.233c-.254 14.151.367 28.516-.062 42.541q-21.328.477-42.661.286l.015 42.622c-13.83-.295-28.589-.046-42.495-.059l.034-42.617c14.129-.143 28.409.108 42.445-.084z"/><path fill="#fefefe" d="m298.996 852.495-.035 42.567c-12.958.098-29.805.69-42.481.149-.008 14.106.183 28.712-.058 42.775l-42.475.025c-.472-13.401-.124-29.147-.023-42.697a3529 3529 0 0 1 42.546-.047l-.039-42.742c13.34.242 29.187.278 42.565-.03"/><path fill="#fefefe" d="m213.946 809.989 42.552-.043c13.906.013 28.665-.236 42.495.059l.003 42.49c-13.378.308-29.225.272-42.565.03-11.337-.704-30.526-.054-42.476-.05-.51-11.998-.311-30.459-.009-42.486"/><path fill="#f1f0f0" d="M256.498 809.946c13.906.013 28.665-.236 42.495.059l.003 42.49c-13.378.308-29.225.272-42.565.03z"/><path fill="#fefefe" d="m171.432 809.97 42.514.019c-.302 12.027-.501 30.488.009 42.486l-.096 42.639c-13.47.257-29.113.579-42.46.034.036-14.006.271-28.66-.061-42.612-.134-14.108.041-28.441.094-42.566"/><path fill="#f1f0f0" d="m171.432 809.97 42.514.019c-.302 12.027-.501 30.488.009 42.486-13.66.207-28.992.314-42.617.061-.134-14.108.041-28.441.094-42.566"/><path fill="#fefefe" d="M264.729 509.86c4.915-10.529 15.896-10.77 19.068.45 4.573-.069 9.075-.105 13.644-.396.626 11.347-2.659 28.002 1.491 37.395.064 1.761.381 4.171-.482 5.515-9.133.94-31.955.471-41.96.31l.032-42.958z"/><path fill="#4ec3a6" d="M264.729 509.86c4.915-10.529 15.896-10.77 19.068.45.551 4.415.609 8.542-2.897 11.874a9.12 9.12 0 0 1-7.078 2.442c-8.233-.723-9.715-7.965-9.093-14.766"/><path fill="#f1f0f0" d="M0 638.431c13.18-.025 30.596-.59 43.421.013l.063 43.064c-14.214.266-29.208.016-43.484.01z"/><path fill="#fefefe" d="M0 980.707c14.174.005 29.2-.191 43.336.189q-.18 21.55.08 43.104H0z"/><path fill="#fefefe" d="M43.484 681.508c-.042 14.24.07 28.812-.19 43.024L0 724.636v-43.118c14.276.006 29.27.256 43.484-.01"/><path fill="#fefefe" d="M43.462 767.074c.007 14.215-.162 28.798.036 42.981-13.79-.38-29.49-.035-43.498-.087v-42.841c14.176-.159 29.572.425 43.462-.053"/><path fill="#fefefe" d="m0 894.929 43.051.114c.716 13.402.332 29.316.35 42.928-14.329.027-29.11-.136-43.401.12z"/><path fill="#fefefe" d="M384.201 980.864c13.682.291 28.814-.021 42.577-.178-.062 12.384-.719 31.304-.016 43.314h-42.743c-.203-13.92-.004-29.233.182-43.136"/><path fill="#fefefe" d="M86.006 681.803c14.25-.322 28.605-.032 42.91-.314-.082 12.183.478 31.461-.273 43.148l-42.644-.092z"/><path fill="#fefefe" d="M469.52 980.91c14.125-.328 28.306.185 42.501-.142q.163 21.617.059 43.232h-42.546z"/><path fill="#fefefe" d="m128.686 638.535 42.594-.037q.201 21.544.155 43.089a2764 2764 0 0 0-42.519-.098c-.882-11.664-.291-30.736-.23-42.954"/><path fill="#fefefe" d="m256.536 638.458.055 43.071c-12.725-.568-29.556-.061-42.608-.065-.489-13.254-.01-29.562.038-42.969z"/><path fill="#fefefe" d="M213.997 980.861q21.257.217 42.515-.107l-.029 43.246h-42.502z"/><path fill="#fefefe" d="m86.04 638.452-.052 43.092q-21.252.128-42.504-.036l-.063-43.064c11.66.213 31.136.573 42.62.008"/><path fill="#fefefe" d="m299.044 980.959 42.767-.118c-.222 14.386-.208 28.779.041 43.159h-42.699z"/><path fill="#f1f0f0" d="M256.536 638.458c13.142-.024 29.583-.538 42.439-.029-.045 12.677-.649 30.646-.017 43.073q-21.184.165-42.367.027z"/><path fill="#fefefe" d="M85.985 852.493c14.146.035 28.861.227 42.961-.009l-.12 42.577a994 994 0 0 1-42.779.03c.158-14.049-.048-28.519-.062-42.598"/><path fill="#fefefe" d="m469.47 938.013-.015 42.651c-14.235-.023-28.479.344-42.702.068-.818-10.316-.129-31.737-.106-42.608 14.222-.231 28.566.034 42.823-.111"/><path fill="#fefefe" d="m128.676 980.997 42.497-.208c.165 12.477-.728 31.601.107 43.211h-42.514c-.251-14.35-.054-28.657-.09-43.003"/><path fill="#fefefe" d="M171.248 510.457c13.741.093 29.102.256 42.76-.117l-.007 42.779q-21.402.223-42.806.124c-.091-14.331.349-28.309.053-42.786"/><path fill="#fefefe" d="M426.623 724.479q-.165 21.333-.06 42.665c-11.514.47-30.878.546-42.497.099q-.106-21.302.026-42.606z"/><path fill="#fefefe" d="M171.344 767.276q21.323-.106 42.646.048c-.004 14.15.128 28.533-.044 42.665l-42.514-.019c-.503-13.697.062-28.753-.088-42.694"/><path fill="#f1f0f0" d="M43.462 767.074c12.878.56 29.581.444 42.549.072.014 13.986.318 28.963.038 42.859l-42.551.05c-.198-14.183-.03-28.766-.036-42.981"/><path fill="#fefefe" d="M171.333 681.83c13.875-.199 28.992.244 42.594-.242l-.016 42.918-42.511-.017q.08-21.33-.067-42.659"/><path fill="#fefefe" d="m511.993 724.477.025 42.803q-21.233.166-42.467.088l-.049-42.862c12.088.08 30.995.666 42.491-.029"/><path fill="#fefefe" d="m298.958 681.502-.035 42.963c-13.696.015-28.858-.307-42.426.078l.094-43.014q21.183.138 42.367-.027"/><path fill="#fefefe" d="m256.497 724.543-.036 42.598c-12.468.589-29.985.518-42.429.035-.722-10.921-.057-31.017-.052-42.461 14.009-.247 28.429-.054 42.517-.172"/><path fill="#fefefe" d="M171.343 938.122c12.275.565 29.986.04 42.604-.111-.222 14.038-.046 28.526-.05 42.599-14.056-.09-28.67.29-42.605-.08-.409-13.558-.028-28.713.051-42.408"/><path fill="#fefefe" d="m85.95 595.973 42.871.037c-.305 14.177.085 28.226-.168 42.366l-42.613.076z"/><path fill="#fefefe" d="M86 724.545c.001 14.065-.19 28.576.01 42.601-12.967.372-29.67.488-42.548-.072l-.013-42.389c13.377-.484 29.052-.13 42.55-.14"/><path fill="#fefefe" d="m128.809 810.012 42.623-.042c-.053 14.125-.228 28.458-.094 42.566-12.92-.549-29.216-.069-42.392-.052-.422-4.117-.247-11.864-.236-16.121z"/><path fill="#fefefe" d="m341.772 767.354 42.294-.111c.054 13.857.484 29.031.035 42.754l-42.348-.025c-.46-13.498-.277-29.101.019-42.618"/><path fill="#fefefe" d="m298.993 810.005 42.622.035c-.065 13.601.427 29.165-.031 42.449l-42.588.006z"/><path fill="#fefefe" d="M213.879 467.897q21.298.098 42.595-.059c.032 13.883.306 28.517.048 42.338q-21.255.288-42.514.164z"/><path fill="#fefefe" d="M86.05 810.005c-.031 13.824.26 28.766-.066 42.488-13.415-.427-29.028-.005-42.554.103q.162-21.27.068-42.541z"/><path fill="#fefefe" d="M469.491 810.018q21.266.056 42.53-.11l-.014 42.567q-21.234.082-42.468-.098z"/><path fill="#fefefe" d="m256.52 596.018 42.458-.118-.003 42.529c-12.856-.509-29.297.005-42.439.029z"/><path fill="#fefefe" d="m384.101 809.997 42.5.045-.098 42.465-42.354-.055c-.173-14.055.244-28.589-.048-42.455"/><path fill="#fefefe" d="M299.007 553.375c7.465-.968 21.886-.289 30.188-.306-.063 7.738-1.152 36.553 1.095 41.534l-1.171 1.106c-8.269.477-22.342.174-30.141.191-.521-12.827.004-29.401.029-42.525"/><path fill="#fefefe" d="m426.767 713.732 42.778-.056-.043 10.83c-11.383-.726-30.872-.048-42.879-.027q.03-5.374.144-10.747"/><path fill="#fefefe" d="M84.961 1024c-.001-7.66-.472-36.96.912-42.585.361 14.063.15 28.485.21 42.585z"/><path fill="#fefefe" d="M43.52 938.166c10.862-.003 32.394.533 42.191-.925l.466 1.558c10.994-1.256 30.879-.774 42.735-.799a1202 1202 0 0 0-.223 42.797c-27.485-.709-57.45.074-85.236-.074z"/><path fill="#fefefe" d="M298.989 895.278q21.376-.11 42.753.009c-.056 13.976.145 28.854-.194 42.778l-42.551-.03c-.008-14.127-.202-28.665-.008-42.757"/><path fill="#fefefe" d="m341.668 852.664 42.493-.122c.269 12.829.345 29.904-.117 42.567q-21.117.228-42.236.144c-.802-10.909-.163-31.076-.14-42.589"/><path fill="#fefefe" d="M129.006 895.364c5.104-.033 39.617-.669 42.202.361q.126 21.127-.039 42.253c-13.854-.002-28.469-.25-42.257.022q-.083-21.318.094-42.636"/><path fill="#fefefe" d="m298.997 938.035-.025 42.779c-13.142-.777-28.82.169-42.442-.188a3809 3809 0 0 1-.008-42.355z"/><path fill="#fefefe" d="M213.957 553.284c13.676.315 28.719.019 42.509.028l-.018 42.532c-13.904-.435-28.277.352-42.449-.176-.202-14.008-.047-28.35-.042-42.384"/><path fill="#fefefe" d="M171.281 595.96h42.7c-.187 14.132.089 28.192-.083 42.287-13.781.337-28.762.184-42.584.052-.336-13.56.064-28.539-.033-42.339"/><path fill="#fefefe" d="m128.741 553.426 42.467-.052c.491 12.955.046 29.228-.058 42.419l-42.407.03c-.627-11.909-.239-30.183-.002-42.397"/><path fill="#fefefe" d="m341.53 713.492 42.539.189.105 10.76-42.439.001a435 435 0 0 0-.205-10.95"/><path fill="#fefefe" d="M511.966 0H1024v127.365c-13.71-.04-29.422-.462-42.971-.019l-.038 42.696c.009 14.01.21 28.465.009 42.435l-.004 42.487-42.651.029c-13.723.302-28.552.012-42.366.009.001 12.614-.66 30.567.007 42.543.003 14.047-.161 28.431.021 42.448-13.866-.324-28.899-.015-42.855.005l-42.635.021c-13.361-.456-29.076-.044-42.548-.016-.645-13.254-.169-29.05-.028-42.419-13.149-.461-28.826.157-42.479-.064-.094 13.699.261 28.948-.121 42.457-9.043.008-23.933-.41-32.594.139-.401-8.977-.036-21.389-.111-30.604q-24.914-.231-49.83-.119l-134.667-.047c-12.315.372-26.343-.03-38.728-.181l-8.887-.094c-4.834-.5-10.477-1.928-15.502-2.569-6.65-.849-11.689-.951-18.305-.98l-.108-8.064c-.208-14.03-.067-28.41-.079-42.459l.029-42.437c13.446-.03 29.707-.525 42.826-.034l.109-42.444-.078-42.739.079-42.35c13.893-.002 28.702-.278 42.514.011l-.001-42.493q-.145-21.256-.042-42.513"/><path fill="#f1f0f0" d="M725.385 0H1024v127.365c-13.71-.04-29.422-.462-42.971-.019l-.038 42.696c.009 14.01.21 28.465.009 42.435l-.004 42.487-42.651.029c-13.723.302-28.552.012-42.366.009.001 12.614-.66 30.567.007 42.543.003 14.047-.161 28.431.021 42.448-13.866-.324-28.899-.015-42.855.005l-42.635.021c-13.361-.456-29.076-.044-42.548-.016-.645-13.254-.169-29.05-.028-42.419-13.149-.461-28.826.157-42.479-.064l-.042-42.515c.407-13.551.06-28.8.053-42.481.045-14.113-.259-28.424-.1-42.471.406-13.735.119-28.841.113-42.642 13.644.3 28.852.174 42.503-.118l.014-42.29c-13.165.352-29.353.245-42.542.037l-.047-42.489z"/><path fill="#fefefe" d="M896.104 0H1024v127.365c-13.71-.04-29.422-.462-42.971-.019l-.038 42.696c.009 14.01.21 28.465.009 42.435l-.004 42.487-42.651.029c-13.723.302-28.552.012-42.366.009-.266-13.88-.017-28.564-.012-42.509-.332-13.718-.034-28.652-.032-42.467l-42.666-.027-.144-42.713c13.993.163 28.882.315 42.831-.033-.205-13.832-.032-28.308.042-42.18l-42.749-.109c.11-11.994-.66-30.962.028-42.043 13.588-.536 29.016-.29 42.742-.402z"/><path fill="#f1f0f0" d="M896.104 0H1024v127.365c-13.71-.04-29.422-.462-42.971-.019l-.037-42.345c-13.92-.253-28.591-.008-42.573-.002l-42.454.053.054-42.533z"/><path fill="#f1f0f0" d="M981.058 0H1024v127.365c-13.71-.04-29.422-.462-42.971-.019l-.037-42.345.041-42.402z"/><path fill="#fefefe" d="M981.058 0H1024v42.745c-13.95-.356-28.898-.078-42.967-.146z"/><path fill="#fefefe" d="m980.992 85.001 43.008.031v42.333c-13.71-.04-29.422-.462-42.971-.019z"/><path fill="#fefefe" d="M981.033 42.6 980.992 85c-13.92-.253-28.591-.008-42.573-.002q.075-21.138-.095-42.277z"/><path fill="#fefefe" d="M896.104 0h42.19l-.004 42.502c-13.807.095-28.504.407-42.271.017z"/><path fill="#f1f0f0" d="M938.4 170.021q21.296-.113 42.591.021c.009 14.01.21 28.465.009 42.435l-.004 42.487-42.651.029c-13.723.302-28.552.012-42.366.009-.266-13.88-.017-28.564-.012-42.509-.332-13.718-.034-28.652-.032-42.467 13.199.252 29.245.327 42.465-.005"/><path fill="#fefefe" d="m981 212.477-.004 42.487-42.651.029-.105-42.092c13.429-.585 29.149-.326 42.76-.424"/><path fill="#fefefe" d="M938.4 170.021c-.448 14.15.072 28.298-.252 42.447l-42.181.025c-.332-13.718-.034-28.652-.032-42.467 13.199.252 29.245.327 42.465-.005"/><path fill="#fefefe" d="M938.419 85c13.982-.007 28.653-.252 42.573.001l.037 42.345-.038 42.696a3665 3665 0 0 0-42.591-.021c.544-12.919.094-29.533-.035-42.708-.46-13.061.021-29.024.054-42.314"/><path fill="#f1f0f0" d="M938.419 85c13.982-.007 28.653-.252 42.573.001l.037 42.345c-12.391.521-30.096.173-42.664-.033-.46-13.061.021-29.024.054-42.314"/><path fill="#f1f0f0" d="M895.959 127.373c13.653.355 28.649.02 42.406-.06.129 13.175.579 29.789.035 42.708-13.22.332-29.266.257-42.465.005q-.118-21.326.024-42.653"/><path fill="#f1f0f0" d="M767.99 254.997c13.981-.009 28.591-.239 42.52.016l.05 42.527-.043 42.479c-13.361-.456-29.076-.044-42.548-.016-.645-13.254-.169-29.05-.028-42.419-13.149-.461-28.826.157-42.479-.064l-.042-42.515z"/><path fill="#fefefe" d="m725.42 255.005 42.57-.008-.049 42.587c-13.149-.461-28.826.157-42.479-.064z"/><path fill="#fefefe" d="m810.56 297.54-.043 42.479c-13.361-.456-29.076-.044-42.548-.016-.645-13.254-.169-29.05-.028-42.419z"/><path fill="#f1f0f0" d="M725.486 127.411c13.644.3 28.852.174 42.503-.118l.013 42.705c-12.109.456-30.517.381-42.629.055.406-13.735.119-28.841.113-42.642"/><path fill="#fefefe" d="M895.986 297.545c.003 14.047-.161 28.431.021 42.448-13.866-.324-28.899-.015-42.855.005-.422-13.229-.024-28.677-.134-42.168 13.743-.666 28.952-.032 42.968-.285"/><path fill="#fefefe" d="m810.51 255.013 42.544.009c.058 13.958.349 28.676.074 42.574q-21.284.21-42.568-.056z"/><path fill="#fefefe" d="M767.989 127.293q21.276.311 42.553.04l-.062 42.635-42.478.03z"/><path fill="#fefefe" d="M810.524 0h42.573l.08 42.594c-14.075-.157-28.519.037-42.621.094-.205-14.08-.03-28.576-.032-42.688"/><path fill="#fefefe" d="M725.385 0h42.475q-.178 21.235.077 42.468c-13.685.08-28.977.48-42.523.083z"/><path fill="#fefefe" d="M895.967 212.493c-.005 13.945-.254 28.629.012 42.509l-42.674-.033c-.486-13.172-.1-28.841-.236-42.295q21.449.08 42.898-.181"/><path fill="#fefefe" d="M810.496 212.514c0 14.02-.199 28.52.014 42.499-13.929-.255-28.539-.025-42.52-.016-.559-12.67-.065-29.244-.012-42.219 14.082-.237 28.415-.183 42.518-.264"/><path fill="#f1f0f0" d="m768.003 85.004 42.484.016.055 42.313q-21.277.271-42.553-.04z"/><path fill="#fefefe" d="m810.487 85.02 42.738.017c-.045 13.607.268 28.668-.129 42.148-13.781.162-28.84.494-42.554.148z"/><path fill="#fefefe" d="M810.519 170.184c14.029-.067 28.57-.285 42.586-.018v42.302l-42.609.046z"/><path fill="#fefefe" d="m768.002 169.998-.023 42.507c-13.987-.007-28.569-.23-42.506.019.045-14.113-.259-28.424-.1-42.471 12.112.326 30.52.401 42.629-.055"/><path fill="#fefefe" d="M767.994 42.783q21.308-.164 42.615-.035l-.122 42.272-42.484-.016z"/><path fill="#f1f0f0" d="M597.512 127.313q21.262.175 42.524-.065-.15 21.415-.034 42.829c-.1 13.515.371 29.23-.155 42.4-10.594-.765-30.793-.043-42.341-.048l-.112 42.502q.16 21.312.057 42.624c12.915.019 29.793.533 42.397-.667 1.506 2.304-.58 8.801-.209 11.639.056.425 2.855.776 3.167.866l-134.667-.047c-12.315.372-26.343-.03-38.728-.181l-8.887-.094c-4.834-.5-10.477-1.928-15.502-2.569-6.65-.849-11.689-.951-18.305-.98l-.108-8.064c-.208-14.03-.067-28.41-.079-42.459l.029-42.437c13.446-.03 29.707-.525 42.826-.034l.109-42.444c9.128-.21 33.94-.685 42.519.027 12.677.68 29.849.079 42.804-.043l42.564-.107c.368-13.763.101-28.808.131-42.648"/><path fill="#fefefe" d="M426.559 212.562c13.446-.03 29.707-.525 42.826-.034l.094 42.464-.006 42.501c-.009 3.758.076 7.951-.062 11.672l-8.887-.094c-4.834-.5-10.477-1.928-15.502-2.569-6.65-.849-11.689-.951-18.305-.98l-.108-8.064c-.208-14.03-.067-28.41-.079-42.459z"/><path fill="#f1f0f0" d="M426.559 212.562c13.446-.03 29.707-.525 42.826-.034l.094 42.464-42.949.007z"/><path fill="#f1f0f0" d="M426.609 297.458c13.475-.011 29.677-.459 42.864.035-.009 3.758.076 7.951-.062 11.672l-8.887-.094c-4.834-.5-10.477-1.928-15.502-2.569-6.65-.849-11.689-.951-18.305-.98z"/><path fill="#f1f0f0" d="M469.494 170.084c9.128-.21 33.94-.685 42.519.027q-.165 21.233-.002 42.466c.043 14.01.185 28.302 0 42.302-12.446-.691-29.91-.039-42.532.113l-.094-42.464z"/><path fill="#fefefe" d="M469.385 212.528c12.219.205 30.733.667 42.626.049.043 14.01.185 28.302 0 42.302-12.446-.691-29.91-.039-42.532.113z"/><path fill="#f1f0f0" d="M469.479 254.992c12.622-.152 30.086-.804 42.532-.113q-.097 21.318.063 42.635.013 5.487.109 10.974c-2.612.921-2.483-.277-4.044.858-12.315.372-26.343-.03-38.728-.181.138-3.721.053-7.914.062-11.672z"/><path fill="#fefefe" d="M469.473 297.493c10.983.367 31.567.605 42.601.021q.013 5.487.109 10.974c-2.612.921-2.483-.277-4.044.858-12.315.372-26.343-.03-38.728-.181.138-3.721.053-7.914.062-11.672"/><path fill="#fefefe" d="M512.011 254.879c14.223.214 28.496-.112 42.704.158a3249 3249 0 0 0-.201 42.463l-42.44.014a3543 3543 0 0 1-.063-42.635"/><path fill="#fefefe" d="M512.013 170.111c12.677.68 29.849.079 42.804-.043a2458 2458 0 0 0-.208 42.417c-13.99.082-28.662.374-42.598.092q-.163-21.233.002-42.466"/><path fill="#fefefe" d="m597.506 212.429-.112 42.502c-14.153-.138-28.505-.001-42.673.017-.513-11.667-.059-30.235.158-42.088 14.154-.371 28.523.029 42.627-.431"/><path fill="#fefefe" d="M640.002 170.077c-.1 13.515.371 29.23-.155 42.4-10.594-.765-30.793-.043-42.341-.048l.017-42.159c8.001.164 16.388.003 24.419.035 5.313.022 12.966.197 18.06-.228"/><path fill="#fefefe" d="m597.451 297.555-.029 11.24-42.993-.008c.187-3.355.122-7.455.157-10.871q21.433-.042 42.865-.361"/><path fill="#f1f0f0" d="M511.966 0h85.455l.035 42.57c6.014-.017 39.415.665 42.249-.523.166-.07.351-.077.526-.116-.065 13.526-1.065 29.73-.353 43.136l-42.514.017.148 42.229c-.03 13.84.237 28.885-.131 42.648l-42.564.107c-12.955.122-30.127.723-42.804.043-8.579-.712-33.391-.237-42.519-.027l-.078-42.739.079-42.35c13.893-.002 28.702-.278 42.514.011l-.001-42.493q-.145-21.256-.042-42.513"/><path fill="#fefefe" d="M469.495 84.996c13.893-.003 28.702-.28 42.514.01-.009 14.04-.143 28.279.002 42.301l.002 42.804c-8.579-.712-33.391-.237-42.519-.027l-.078-42.739z"/><path fill="#f1f0f0" d="M469.495 84.996c13.893-.003 28.702-.28 42.514.01-.009 14.04-.143 28.279.002 42.301-13.406.449-29.109.274-42.595.038z"/><path fill="#fefefe" d="M511.966 0h42.809l-.05 42.492c-13.177.155-29.727.646-42.717.021q-.145-21.256-.042-42.513"/><path fill="#fefefe" d="M554.806 127.351c13.894-.023 28.967.365 42.706-.038-.03 13.84.237 28.885-.131 42.648l-42.564.107z"/><path fill="#fefefe" d="M597.456 42.57c-.069 14.112.177 28.296-.166 42.395-5.125.02-41.022.476-42.653-.409q.143-20.834.065-41.668c14.05-.39 28.592-.105 42.754-.318"/><path fill="#fefefe" d="m512.009 85.006 42.71.03-.018 42.071c-13.36.179-29.453.712-42.69.2-.145-14.022-.011-28.262-.002-42.3"/><path fill="#f1f0f0" d="M682.585 0h42.8l.029 42.551c-13.78.25-29.38-.312-42.978.482z"/><path fill="#f1f0f0" d="M682.403 297.94c.181-11.098.039-22.247.106-33.348.019-3.133.124-6.589-.304-9.658 14.307.201 28.888.067 43.215.071l.042 42.515c-13.616.006-29.616-.308-43.059.42"/><path fill="#f1f0f0" d="M682.758 169.958c14.175.159 28.427-.191 42.615.095-.159 14.047.145 28.358.1 42.471-12.018.663-30.114.06-42.604.05.514-11.579.249-31.005-.111-42.616"/><path fill="#f1f0f0" d="M597.506 212.429c11.548.005 31.747-.717 42.341.048-.269 10.236-.931 33.388.818 42.762.172-.063-14.974-.286-16.158-.286l-27.113-.022z"/><path fill="#f1f0f0" d="m682.749 84.986 42.712.054-.005 42.205h-42.701a4192 4192 0 0 0-.006-42.26"/><path fill="#f1f0f0" d="M640.002 170.077q21.064-.21 42.127-.103c-.162 13.174-.414 29.403-.028 42.55l-27.481.037c-4.3.008-10.698.233-14.773-.084.526-13.17.055-28.885.155-42.4"/><path fill="#f1f0f0" d="M341.59 127.407c13.756.069 28.827.329 42.508-.12-.068 13.641-.427 29.249.026 42.747 13.066-.498 29.111-.061 42.418-.07.247-14.015.1-28.501.093-42.541l42.781-.078.078 42.739-.109 42.444c-13.119-.491-29.38.004-42.826.034l-.029 42.437c.012 14.049-.129 28.429.079 42.459l.108 8.064c-16.305.939-25.757 2.883-41.293 8.849l-.578-.447c-1.358-3.061-.802-12.601-.728-16.409-12.957-.459-29.271.023-42.506.067-13.744.037-29.021-.26-42.637.18-.034 12.881-.574 29.74-.068 42.241l-42.41.016-.004-42.467-.012-42.554.01-42.504c-.203-13.893.029-28.325.061-42.26 11.472 0 31.762.75 42.435-.101 13.726-.425 28.709-.128 42.53-.104.343-13.889.092-28.691.073-42.622"/><path fill="#fefefe" d="m426.559 212.562-.029 42.437c.012 14.049-.129 28.429.079 42.459l.108 8.064c-16.305.939-25.757 2.883-41.293 8.849l-.578-.447c-1.358-3.061-.802-12.601-.728-16.409-12.957-.459-29.271.023-42.506.067-.49-13.296-.076-29.138-.057-42.557l42.501.001.061-42.422z"/><path fill="#f1f0f0" d="M384.136 254.972c14.008.272 28.294-.144 42.394.027.012 14.049-.129 28.429.079 42.459l.108 8.064c-16.305.939-25.757 2.883-41.293 8.849l-.578-.447c-1.358-3.061-.802-12.601-.728-16.409.328-13.433.411-29.148.018-42.543"/><path fill="#fefefe" d="m426.609 297.458.108 8.064c-16.305.939-25.757 2.883-41.293 8.849l-.578-.447c-1.358-3.061-.802-12.601-.728-16.409 13.699.07 28.903.346 42.491-.057"/><path fill="#f1f0f0" d="m298.944 255.013 42.611.012c-.019 13.419-.433 29.261.057 42.557-13.744.037-29.021-.26-42.637.18-.034 12.881-.574 29.74-.068 42.241l-42.41.016-.004-42.467-.012-42.554c13.989.244 28.44.046 42.463.015"/><path fill="#fefefe" d="M256.481 254.998c13.989.244 28.44.046 42.463.015q-.097 21.282.044 42.564-21.248.405-42.495-.025z"/><path fill="#fefefe" d="m469.494 170.084-.109 42.444c-13.119-.491-29.38.004-42.826.034-.246-13.913-.009-28.42.032-42.377q21.452.354 42.903-.101"/><path fill="#fefefe" d="M384.124 170.034c.22 13.795.401 28.668.085 42.419l-42.457.037c-.876-9.259-.205-32.06-.185-42.303 13.192.417 29.206.038 42.557-.153"/><path fill="#fefefe" d="M298.995 212.85a2488 2488 0 0 1 42.671-.274l-.111 42.449-42.611-.012z"/><path fill="#fefefe" d="m298.987 170.133-.086 42.339-42.41.022c-.203-13.893.029-28.325.061-42.26 11.472 0 31.762.75 42.435-.101"/><path fill="#f1f0f0" d="M256.333 0h255.633q-.103 21.257.042 42.513l.001 42.493c-13.812-.29-28.621-.013-42.514-.01l-.079 42.349-42.781.078c.007 14.04.154 28.526-.093 42.541-13.307.009-29.352-.428-42.418.07-.453-13.498-.094-29.106-.026-42.747-13.681.449-28.752.189-42.508.12-.459-13.223-.052-28.94-.058-42.363-13.332-.46-29.097-.024-42.614.007-14.083-.14-28.311.093-42.422.018l-.063-42.442c-.458-13.232-.388-29.344-.1-42.627"/><path fill="#fefefe" d="M384.165 42.868c14.096-.185 28.694.103 42.656-.24-.439 13.859-.257 28.542-.284 42.47l-42.294-.108c.062 13.465.479 29.064-.069 42.355 13.809-.067 28.688-.362 42.461.078.007 14.04.154 28.526-.093 42.541-13.307.009-29.352-.428-42.418.07-.453-13.498-.094-29.106-.026-42.747-13.681.449-28.752.189-42.508.12-.459-13.223-.052-28.94-.058-42.363l42.561.01q-.117-21.093.072-42.186"/><path fill="#fefefe" d="M426.756 0h42.701l-.022 42.6c-13.957.17-28.847.45-42.743.084-.614-12.163-.211-30.24.064-42.684"/><path fill="#fefefe" d="M341.537 0h42.788l-.159 42.576-42.601.07z"/><path fill="#fefefe" d="M256.333 0h42.581l.036 42.64c-14.015.013-28.544.224-42.517-.013-.458-13.232-.388-29.344-.1-42.627"/><path fill="#fefefe" d="m469.495 84.996-.079 42.349-42.781.078c-.573-12.718-.073-29.224-.057-42.228 14.177.104 28.71-.133 42.917-.2"/><path fill="#fefefe" d="M298.996 42.949q21.273-.32 42.547-.251l-.011 42.346c-13.332-.46-29.097-.024-42.614.007-.39-13.308.052-28.627.078-42.102"/><path fill="#fefefe" d="m512.008 42.513.001 42.493c-13.812-.29-28.621-.013-42.514-.01l-.03-42.062c13.125-.626 29.033-.22 42.543-.42"/><path fill="#f1f0f0" d="M981.029 127.346c13.549-.443 29.261-.021 42.971.019v85.101l-43 .011c.201-13.97 0-28.425-.009-42.435z"/><path fill="#fefefe" d="M980.991 170.042c14.255.163 28.739.013 43.009-.016v42.44l-43 .011c.201-13.97 0-28.425-.009-42.435"/><path fill="#fefefe" d="m981 212.477 43-.011v85.123c-14.33-.098-28.651-.123-42.977-.074l-.027-42.551z"/><path fill="#f1f0f0" d="m981 212.477 43-.011v42.496l-43.004.002z"/></svg>